<?xml version="1.0" encoding="utf-8"?>
<!-- Generator: Adobe Illustrator 24.3.0, SVG Export Plug-In . SVG Version: 6.00 Build 0)  -->
<svg version="1.1" id="Layer_1" xmlns="http://www.w3.org/2000/svg" xmlns:xlink="http://www.w3.org/1999/xlink" x="0px" y="0px"
	 viewBox="0 0 544.8 541.1" style="enable-background:new 0 0 544.8 541.1;" xml:space="preserve">
<style type="text/css">
	.st0{fill:#A8E788;}
	.st1{fill:#003500;}
	.st2{fill:#39584A;}
	.st3{fill:#FFFFFF;}
	.st4{fill:#39B54A;}
	.st5{display:none;fill:#1C7C96;}
	.st6{display:none;fill:#31A2B5;}
	.st7{fill:#39844A;}
	.st8{fill:#FBFBFB;}
	.st9{fill:#FE6060;}
</style>
<circle class="st0" cx="272.4" cy="270.6" r="255.9"/>
<g>
	<rect x="224.3" y="426.6" class="st1" width="72.7" height="39.9"/>
	<path class="st2" d="M404.4,426.6h-288c-8.8,0-15.9-7.2-15.9-15.9V222.5c0-8.8,7.2-15.9,15.9-15.9h288c8.8,0,15.9,7.2,15.9,15.9
		v188.1C420.4,419.4,413.2,426.6,404.4,426.6z"/>
	<path class="st3" d="M401.8,390.6H119c-1.4,0-2.6-1.2-2.6-2.6V225.4c0-1.4,1.2-2.6,2.6-2.6h282.8c1.4,0,2.6,1.2,2.6,2.6V388
		C404.5,389.4,403.3,390.6,401.8,390.6z"/>
	<path class="st2" d="M316.2,474.5H204.6c-2.2,0-4-1.8-4-4l0,0c0-2.2,1.8-4,4-4h111.6c2.2,0,4,1.8,4,4l0,0
		C320.2,472.7,318.4,474.5,316.2,474.5z"/>
	<path class="st4" d="M261.6,399.8c-4.4,0-8,3.6-8,8c0,4.4,3.6,8,8,8c4.4,0,8-3.6,8-8C269.6,403.4,266,399.8,261.6,399.8z
		 M261.6,412.6c-2.7,0-4.8-2.2-4.8-4.8s2.2-4.8,4.8-4.8c2.7,0,4.8,2.2,4.8,4.8S264.3,412.6,261.6,412.6z"/>
</g>
<path class="st5" d="M285,207.3c3-7.9,3-7.9,11.7-6.4c1.3,0.2,2.9,0.6,4.5,0.9c5.5,1.4,8.5-0.4,11.1-5.8c1.5-3.1,2.2-5.2-0.5-7.9
	c-2.3-2.3-4.1-5.3-6.4-7.7c-3.1-3.2-3-5.9,0.3-8.9c4.2-3.8,8.2-7.7,12-11.8c2.9-3.1,5.6-3.1,8.7-0.4c2.9,2.5,5.9,4.8,8.8,7.3
	c3.1,3.3,7.7-0.4,11.1-2.3c2.6-1.4,2.3-3,1.8-5.3c-0.7-3.7-1.1-7.6-1.9-11.3c-0.8-3.8,0.9-5.7,4.3-6.6c6-1.5,12-2.9,17.9-4.4
	c3.2-0.8,5.2,0.4,6.3,3.3c1.6,4,3.4,8,4.7,12.1c1.7,4.6,5.1,3.2,8.9,3.1c2.7-0.1,4.4-0.4,5.3-3.2c1.2-3.6,2.7-7.1,4.1-10.7
	c1.5-4.1,4.3-5.2,9.3-2.9c3.8,1.7,7.8,2.8,11.9,3.4c5.8,0.8,8.7,3,7.4,8.2c-0.6,2.4-0.8,4.9-1.2,7.4c-1.4,7.5-0.5,8.9,6.4,12
	c1.6,0.7,2.6,0.3,3.5-0.5c3.3-2.5,6.4-5.1,9.5-7.8c3.5-3,6.8-3,10.1,1.5c2.7,3.6,5.8,7,9.4,9.7c4.3,3.2,5,6.4,2.1,9.9
	c-2,2.5-4,4.9-6,7.4c-3.7,4.6-3.9,7.6,0.1,11.9c1.1,1.3,3.6,1.6,4.9,1.4c4.1-0.7,7.3-1.5,11.4-2.2c4.3-0.8,6.7,1.2,7.4,6.2
	c0.6,4.7,1.6,9.3,3.5,13.6c2.2,5,0.8,7.9-3.2,9.4c-2.9,1.1-5.9,2.2-8.9,3.3c-5.9,2.2-6.9,4.3-5.7,10.5c0.4,2.1,2,2.4,3.5,3
	c3.4,1.4,6.8,2.7,10.3,3.8c4.3,1.5,6,3.9,4.4,8.7c-1.7,4.9-3.2,9.9-4,15.1c-0.7,4.5-3,6.4-7.1,5.7c-3.8-0.6-7.6-1-11.3-1.9
	c-4.3-1.1-5.3,1.9-7,4.5c-1.6,2.5-2.2,4.5,0.3,7c2.7,2.7,5,5.8,7.4,8.8c2.4,2.9,2.3,5.8-0.3,8.5c-4.2,4.3-8.4,8.5-12.6,12.9
	c-2.5,2.6-5,2.9-7.9,0.5c-2.9-2.5-6-4.8-8.9-7.2c-1.7-1.4-3.3-3.1-5.6-1.1c-2.5,2.2-7.4,2.3-6.2,7.7c0.7,3.1,1,6.2,1.5,9.4
	c1.2,7,0.6,8.1-6.1,10c-1.1,0.3-2.2,0.7-3.3,1.1c-5.3,1.3-10.6,2.6-15.9,4c-3.9-3.4-4.8-8.3-6.2-12.8c-1.4-4.7-3.6-6.2-8.8-6
	c-4.5,0.2-6.1,1.7-7.2,5.5c-0.9,3.2-2.4,6.2-3.5,9.3c-1.3,3.7-3.8,4.8-7.4,3.9c-5.8-1.4-11.6-2.9-17.4-4.4c-3.5-0.9-4.9-3.1-4.2-6.7
	c0.8-4.1,1.4-8.2,2.1-12.3c0.2-1.2-0.2-2.9-1.2-4c-5.8-4.9-9.1-4.7-15.1,0.3c-10.9,8.9-9.7,9-19.6-0.8c-12.6-12.5-12.4-9.1-1.1-22.9
	c2.2-2.7,3.3-4.6,0.9-8.1c-4.7-6.8-4.4-7-12.7-5.5c-2.3,0.4-4.6,0.8-6.9,1.2c-3.5,0.6-5.8-0.7-6.8-4.2c-1.1-4-2.1-8-3.2-12
	c-2.8-10.3-2.8-10.3,7.3-14.2c9.2-3.5,9.1-3.5,9.5-13.1c0.1-2-1.2-3.8-3.1-4.4c-3.9-1.3-7.6-3-11.5-4.3c-2.7-0.9-4.3-2.4-4.2-5.4
	C282.3,218,283.7,212.7,285,207.3z M385.3,192.1c-27.6,0-50,22.2-50,49.6c-0.1,27.8,22.2,50.3,49.9,50.4c27.6,0,50.1-22.5,50.1-50.2
	C435.1,214.4,412.8,192.1,385.3,192.1z"/>
<path class="st6" d="M356.5,103.7c-1-0.5-2.1-1.1-3.1-1.5c-2-0.8-2.8-2.2-3.5-4.4c-1.2-4.1-0.2-6.8,3.1-9.4c3.1-2.5,7-4.9,6.2-10
	c-1.1-7.9-7.4-11.9-14.9-9.4c-1.6,0.5-3.2,1-4.7,1.6c-2,0.8-3.7,0.3-5.6-0.7c-4.2-2.2-5.3-5.3-4.4-9.9c0.9-4.2,1.2-8.5-3.5-10.9
	c-8.1-4.2-12.7-2.7-16.7,5.4c-0.3,0.6-0.6,1.2-0.9,1.8c-3.3,6.6-9.3,7.5-14.5,2.1c-1.3-1.3-2.6-2.6-3.8-3.9
	c-2.8-3.2-5.8-3.8-9.7-1.6c-8,4.4-8.9,6.5-5.4,15.7c3.2,8.5-1.3,14.3-10.3,13.3c-8.6-0.9-10.1,0.1-12,8.5c-1.5,6.5-0.8,7.6,7.5,11.7
	c8.8,4.4,9.6,10.8,2.1,17c-5.8,4.8-6.5,7.6-3.3,13.2c3.6,6.4,5.7,7.2,13,4.7c1.4-0.5,2.8-1,4.3-1.4c5.7-1.7,11,2.4,11,8.3
	c0,2.7,0,5.3,0,8c0,2,0.8,3.5,2.4,4.7c6.6,4.8,13.9,2.9,17.5-4.3c0.8-1.6,1.5-3.3,2.5-4.9c1.9-3.2,8.5-4.4,11.4-2
	c1.8,1.5,3.3,3.3,4.9,5c4.7,4.8,6.6,5,12.1,1.5c6.8-4.3,7.1-5.7,4.3-13.6c-1.1-3-3-5.7-1.1-9.5c2.5-4.8,6.3-5.3,10.8-4.6
	c3.5-0.6,7.5,1.3,9.9-3C366.5,113.2,364.9,107.9,356.5,103.7z M307.9,129.4c-14.5,0-26.3-11.8-26.3-26.3s11.8-26.3,26.3-26.3
	c14.5,0,26.3,11.8,26.3,26.3S322.4,129.4,307.9,129.4z"/>
<g>
	<g>
		<g>
			<g>
				<path class="st7" d="M381.7,164.6l-22.8,6.3c-2.8,0.8-5.6-1.3-6.2-4.5l-3.3-19.2c-0.5-2.8,1-5.4,3.5-6l19.5-4.8
					c2.4-0.6,4.8,0.9,5.8,3.4l6.6,17.8C386,160.6,384.5,163.9,381.7,164.6z"/>
				<circle class="st7" cx="388.4" cy="241.5" r="86.3"/>
			</g>
		</g>
		<g>
			<g>
				<path class="st7" d="M421.1,171.6l-22.9-6c-2.8-0.7-4.2-4-3.1-7l6.7-18.3c1-2.6,3.6-4.1,6-3.5l19.3,5.5c2.3,0.7,3.8,3.2,3.3,5.9
					l-3.1,18.7C426.7,170.2,423.8,172.4,421.1,171.6z"/>
				<circle class="st7" cx="388.4" cy="241.5" r="86.3"/>
			</g>
		</g>
		<g>
			<g>
				<path class="st7" d="M451.6,197.3l-16.8-16.6c-2-2-1.7-5.6,0.8-7.6l15-12.4c2.2-1.8,5.2-1.8,6.9,0l13.9,14.4
					c1.7,1.8,1.7,4.6-0.1,6.7l-12.1,14.6C457.2,199,453.7,199.4,451.6,197.3z"/>
				<circle class="st7" cx="388.4" cy="241.5" r="86.3"/>
			</g>
		</g>
		<g>
			<g>
				<path class="st7" d="M465.2,234.9l-6.3-22.8c-0.8-2.8,1.3-5.6,4.5-6.2l19.2-3.3c2.8-0.5,5.4,1,6,3.5l4.8,19.5
					c0.6,2.4-0.9,4.8-3.4,5.8l-17.8,6.6C469.3,239.1,466,237.7,465.2,234.9z"/>
				<circle class="st7" cx="388.4" cy="241.5" r="86.3"/>
			</g>
		</g>
		<g>
			<g>
				<path class="st7" d="M458.2,274.2l6-22.9c0.7-2.8,4-4.2,7-3.1l18.3,6.7c2.6,1,4.1,3.6,3.5,6l-5.5,19.3c-0.7,2.3-3.2,3.8-5.9,3.3
					l-18.7-3.1C459.6,279.9,457.5,277,458.2,274.2z"/>
				<circle class="st7" cx="388.4" cy="241.5" r="86.3"/>
			</g>
		</g>
		<g>
			<g>
				<path class="st7" d="M432.5,304.8l16.6-16.8c2-2,5.6-1.7,7.6,0.8l12.4,15c1.8,2.2,1.8,5.2,0,6.9l-14.4,13.9
					c-1.8,1.7-4.6,1.7-6.7-0.1l-14.6-12.1C430.9,310.4,430.5,306.8,432.5,304.8z"/>
				<circle class="st7" cx="388.4" cy="241.5" r="86.3"/>
			</g>
		</g>
		<g>
			<g>
				<path class="st7" d="M395,318.4l22.8-6.3c2.8-0.8,5.6,1.3,6.2,4.5l3.3,19.2c0.5,2.8-1,5.4-3.5,6l-19.5,4.8
					c-2.4,0.6-4.8-0.9-5.8-3.4l-6.6-17.8C390.8,322.5,392.2,319.2,395,318.4z"/>
				<circle class="st7" cx="388.4" cy="241.5" r="86.3"/>
			</g>
		</g>
		<g>
			<g>
				<path class="st7" d="M355.6,311.4l22.9,6c2.8,0.7,4.2,4,3.1,7l-6.7,18.3c-1,2.6-3.6,4.1-6,3.5l-19.3-5.5
					c-2.3-0.7-3.8-3.2-3.3-5.9l3.1-18.7C350,312.8,352.9,310.7,355.6,311.4z"/>
				<circle class="st7" cx="388.4" cy="241.5" r="86.3"/>
			</g>
		</g>
		<g>
			<g>
				<path class="st7" d="M325.1,285.7l16.8,16.6c2,2,1.7,5.6-0.8,7.6l-15,12.4c-2.2,1.8-5.2,1.8-6.9,0l-13.9-14.4
					c-1.7-1.8-1.7-4.6,0.1-6.7l12.1-14.6C319.5,284.1,323,283.7,325.1,285.7z"/>
				<circle class="st7" cx="388.4" cy="241.5" r="86.3"/>
			</g>
		</g>
		<g>
			<g>
				<path class="st7" d="M311.5,248.1l6.3,22.8c0.8,2.8-1.3,5.6-4.5,6.2l-19.2,3.3c-2.8,0.5-5.4-1-6-3.5l-4.8-19.5
					c-0.6-2.4,0.9-4.8,3.4-5.8l17.8-6.6C307.4,243.9,310.7,245.4,311.5,248.1z"/>
				<circle class="st7" cx="388.4" cy="241.5" r="86.3"/>
			</g>
		</g>
		<g>
			<g>
				<path class="st7" d="M318.5,208.8l-6,22.9c-0.7,2.8-4,4.2-7,3.1l-18.3-6.7c-2.6-1-4.1-3.6-3.5-6l5.5-19.3
					c0.7-2.3,3.2-3.8,5.9-3.3l18.7,3.1C317.1,203.1,319.2,206,318.5,208.8z"/>
				<circle class="st7" cx="388.4" cy="241.5" r="86.3"/>
			</g>
		</g>
		<g>
			<g>
				<path class="st7" d="M344.2,178.3l-16.6,16.8c-2,2-5.6,1.7-7.6-0.8l-12.4-15c-1.8-2.2-1.8-5.2,0-6.9l14.4-13.9
					c1.8-1.7,4.6-1.7,6.7,0.1l14.6,12.1C345.8,172.6,346.2,176.2,344.2,178.3z"/>
				<circle class="st7" cx="388.4" cy="241.5" r="86.3"/>
			</g>
		</g>
		<g>
			<g>
				<path class="st7" d="M381.7,164.6l-22.8,6.3c-2.8,0.8-5.6-1.3-6.2-4.5l-3.3-19.2c-0.5-2.8,1-5.4,3.5-6l19.5-4.8
					c2.4-0.6,4.8,0.9,5.8,3.4l6.6,17.8C386,160.6,384.5,163.9,381.7,164.6z"/>
				<circle class="st7" cx="388.4" cy="241.5" r="86.3"/>
			</g>
		</g>
	</g>
	<circle class="st8" cx="388.4" cy="241.5" r="50"/>
	<circle class="st9" cx="388.4" cy="241.5" r="39.9"/>
</g>
<g>
	<g>
		<g>
			<path class="st4" d="M301.3,71.8l-10.8,6.1c-3.5,2-6.6-0.2-8.3-4.7c-1.3-3.2-2.3-6.2-3.9-11c-1.1-3.6-0.9-5.9,1.5-7.6l8.1-4.4
				c2.4-1.1,4.5-0.4,6.7,2.5c2.9,3.7,4.8,6.1,7.7,10C304.5,65.6,304.8,69.8,301.3,71.8z"/>
			<path class="st4" d="M313.2,59c-4.3-0.2-8.6,0.3-12.6,1.3c-7.3,1.9-13.9,5.6-19.2,10.6c-7.9,7.5-13.1,18-13.5,29.8
				c-1,24,17.7,44.3,41.8,45.3c24.1,1,44.3-17.7,45.3-41.8C355.9,80.3,337.2,60,313.2,59z M310,128.9c-14.5-0.6-25.8-12.8-25.2-27.4
				s12.8-25.8,27.4-25.2c14.5,0.6,25.8,12.8,25.2,27.4S324.5,129.5,310,128.9z"/>
		</g>
	</g>
	<g>
		<g>
			<path class="st4" d="M326.1,73.7l-11.9-3.3c-3.8-1.1-4.5-4.8-2.6-9.2c1.4-3.2,2.7-6,5-10.5c1.7-3.3,3.6-4.8,6.4-4.3l8.8,2.6
				c2.5,1,3.4,2.9,3,6.5c-0.6,4.6-0.9,7.8-1.7,12.5C332.6,71.5,329.9,74.8,326.1,73.7z"/>
			<path class="st4" d="M343.5,73c-2.9-3.2-6.3-5.9-9.8-8c-6.5-3.8-13.8-5.9-21.1-6.1c-10.9-0.3-22,3.5-30.7,11.5
				c-17.7,16.3-18.8,43.9-2.5,61.6c16.3,17.7,43.9,18.8,61.6,2.5C358.7,118.3,359.8,90.7,343.5,73z M291.8,120.2
				c-9.9-10.7-9.2-27.3,1.5-37.2s27.3-9.2,37.2,1.5c9.9,10.7,9.2,27.3-1.5,37.2S301.7,130.8,291.8,120.2z"/>
		</g>
	</g>
	<g>
		<g>
			<path class="st4" d="M342.2,92.5l-6.1-10.8c-2-3.5,0.2-6.6,4.7-8.3c3.2-1.3,6.2-2.3,11-3.9c3.6-1.1,5.9-0.9,7.6,1.5l4.4,8.1
				c1.1,2.4,0.4,4.5-2.5,6.7c-3.7,2.9-6.1,4.8-10,7.7C348.4,95.6,344.1,96,342.2,92.5z"/>
			<path class="st4" d="M355,104.3c0.2-4.3-0.3-8.6-1.3-12.6c-1.9-7.3-5.6-13.9-10.6-19.2c-7.5-7.9-18-13.1-29.8-13.5
				c-24-1-44.3,17.7-45.3,41.8c-1,24.1,17.7,44.3,41.8,45.3C333.7,147.1,354,128.4,355,104.3z M285.1,101.1
				c0.6-14.5,12.8-25.8,27.4-25.2c14.5,0.6,25.8,12.8,25.2,27.4c-0.6,14.5-12.8,25.8-27.4,25.2C295.8,127.9,284.5,115.7,285.1,101.1
				z"/>
		</g>
	</g>
	<g>
		<g>
			<path class="st4" d="M340.3,117.2l3.3-11.9c1.1-3.8,4.8-4.5,9.2-2.6c3.2,1.4,6,2.7,10.5,5c3.3,1.7,4.8,3.6,4.3,6.4L365,123
				c-1,2.5-2.9,3.4-6.5,3c-4.6-0.6-7.8-0.9-12.5-1.7C342.5,123.8,339.2,121,340.3,117.2z"/>
			<path class="st4" d="M341,134.6c3.2-2.9,5.9-6.3,8-9.8c3.8-6.5,5.9-13.8,6.1-21.1c0.3-10.9-3.5-22-11.5-30.7
				c-16.3-17.7-43.9-18.8-61.6-2.5c-17.7,16.3-18.8,43.9-2.5,61.6C295.7,149.8,323.3,150.9,341,134.6z M293.8,83
				c10.7-9.9,27.3-9.2,37.2,1.5c9.9,10.7,9.2,27.3-1.5,37.2c-10.7,9.9-27.3,9.2-37.2-1.5S283.1,92.8,293.8,83z"/>
		</g>
	</g>
	<g>
		<g>
			<path class="st4" d="M321.5,133.3l10.8-6.1c3.5-2,6.6,0.2,8.3,4.7c1.3,3.2,2.3,6.2,3.9,11c1.1,3.6,0.9,5.9-1.5,7.6l-8.1,4.4
				c-2.4,1.1-4.5,0.4-6.7-2.5c-2.9-3.7-4.8-6.1-7.7-10C318.4,139.5,318,135.3,321.5,133.3z"/>
			<path class="st4" d="M309.7,146.1c4.3,0.2,8.6-0.3,12.6-1.3c7.3-1.9,13.9-5.6,19.2-10.6c7.9-7.5,13.1-18,13.5-29.8
				c1-24-17.7-44.3-41.8-45.3c-24.1-1-44.3,17.7-45.3,41.8C266.9,124.8,285.6,145.1,309.7,146.1z M312.8,76.3
				c14.5,0.6,25.8,12.8,25.2,27.4s-12.8,25.8-27.4,25.2c-14.5-0.6-25.8-12.8-25.2-27.4S298.3,75.7,312.8,76.3z"/>
		</g>
	</g>
	<g>
		<g>
			<path class="st4" d="M296.8,131.5l11.9,3.3c3.8,1.1,4.5,4.8,2.6,9.2c-1.4,3.2-2.7,6-5,10.5c-1.7,3.3-3.6,4.8-6.4,4.3l-8.8-2.6
				c-2.5-1-3.4-2.9-3-6.5c0.6-4.6,0.9-7.8,1.7-12.5C290.2,133.6,293,130.4,296.8,131.5z"/>
			<path class="st4" d="M279.4,132.1c2.9,3.2,6.3,5.9,9.8,8c6.5,3.8,13.8,5.9,21.1,6.1c10.9,0.3,22-3.5,30.7-11.5
				c17.7-16.3,18.8-43.9,2.5-61.6c-16.3-17.7-43.9-18.8-61.6-2.5C264.2,86.8,263.1,114.4,279.4,132.1z M331,85
				c9.9,10.7,9.2,27.3-1.5,37.2s-27.3,9.2-37.2-1.5c-9.9-10.7-9.2-27.3,1.5-37.2S321.2,74.3,331,85z"/>
		</g>
	</g>
	<g>
		<g>
			<path class="st4" d="M280.7,112.6l6.1,10.8c2,3.5-0.2,6.6-4.7,8.3c-3.2,1.3-6.2,2.3-11,3.9c-3.6,1.1-5.9,0.9-7.6-1.5l-4.4-8.1
				c-1.1-2.4-0.4-4.5,2.5-6.7c3.7-2.9,6.1-4.8,10-7.7C274.5,109.5,278.7,109.2,280.7,112.6z"/>
			<path class="st4" d="M267.9,100.8c-0.2,4.3,0.3,8.6,1.3,12.6c1.9,7.3,5.6,13.9,10.6,19.2c7.5,7.9,18,13.1,29.8,13.5
				c24,1,44.3-17.7,45.3-41.8c1-24.1-17.7-44.3-41.8-45.3C289.1,58.1,268.9,76.8,267.9,100.8z M337.7,104
				c-0.6,14.5-12.8,25.8-27.4,25.2c-14.5-0.6-25.8-12.8-25.2-27.4c0.6-14.5,12.8-25.8,27.4-25.2C327,77.2,338.3,89.5,337.7,104z"/>
		</g>
	</g>
	<g>
		<g>
			<path class="st4" d="M282.5,87.9l-3.3,11.9c-1.1,3.8-4.8,4.5-9.2,2.6c-3.2-1.4-6-2.7-10.5-5c-3.3-1.7-4.8-3.6-4.3-6.4l2.6-8.8
				c1-2.5,2.9-3.4,6.5-3c4.6,0.6,7.8,0.9,12.5,1.7C280.4,81.3,283.6,84.1,282.5,87.9z"/>
			<path class="st4" d="M281.9,70.5c-3.2,2.9-5.9,6.3-8,9.8c-3.8,6.5-5.9,13.8-6.1,21.1c-0.3,10.9,3.5,22,11.5,30.7
				c16.3,17.7,43.9,18.8,61.6,2.5c17.7-16.3,18.8-43.9,2.5-61.6C327.1,55.3,299.6,54.2,281.9,70.5z M329,122.2
				c-10.7,9.9-27.3,9.2-37.2-1.5c-9.9-10.7-9.2-27.3,1.5-37.2c10.7-9.9,27.3-9.2,37.2,1.5S339.7,112.3,329,122.2z"/>
		</g>
	</g>
	<g>
		<g>
			<path class="st4" d="M301.3,71.8l-10.8,6.1c-3.5,2-6.6-0.2-8.3-4.7c-1.3-3.2-2.3-6.2-3.9-11c-1.1-3.6-0.9-5.9,1.5-7.6l8.1-4.4
				c2.4-1.1,4.5-0.4,6.7,2.5c2.9,3.7,4.8,6.1,7.7,10C304.5,65.6,304.8,69.8,301.3,71.8z"/>
			<path class="st4" d="M313.2,59c-4.3-0.2-8.6,0.3-12.6,1.3c-7.3,1.9-13.9,5.6-19.2,10.6c-7.9,7.5-13.1,18-13.5,29.8
				c-1,24,17.7,44.3,41.8,45.3c24.1,1,44.3-17.7,45.3-41.8C355.9,80.3,337.2,60,313.2,59z M310,128.9c-14.5-0.6-25.8-12.8-25.2-27.4
				s12.8-25.8,27.4-25.2c14.5,0.6,25.8,12.8,25.2,27.4S324.5,129.5,310,128.9z"/>
		</g>
	</g>
</g>
</svg>
