<?xml version="1.0" encoding="utf-8"?>
<!-- Generator: Adobe Illustrator 24.3.0, SVG Export Plug-In . SVG Version: 6.00 Build 0)  -->
<svg version="1.1" id="Layer_1" xmlns="http://www.w3.org/2000/svg" xmlns:xlink="http://www.w3.org/1999/xlink" x="0px" y="0px"
	 viewBox="0 0 120.6 46" style="enable-background:new 0 0 120.6 46;" xml:space="preserve">
<style type="text/css">
	.st0{opacity:0.6;}
	.st1{enable-background:new    ;}
	.st2{fill:none;stroke:#000000;stroke-width:1.25;stroke-miterlimit:10;}
	.st3{fill:#FFFFFF;}
	.st4{fill:#39B54A;}
</style>
<g id="Group" class="st0">
	<g class="st1">
		<path d="M16.5,20.7c-0.1-0.1-0.1-0.2-0.1-0.3v-0.7c0-0.1,0-0.2-0.1-0.3c-0.1-0.1-0.2-0.1-0.3-0.1h-0.7c-0.1,0-0.2,0-0.3-0.1
			c-0.1-0.1-0.1-0.2-0.1-0.3v-3.6c0-0.1,0-0.2-0.1-0.3C14.6,15,14.5,15,14.4,15h-0.7c-0.1,0-0.2,0-0.3-0.1c-0.1-0.1-0.1-0.2-0.1-0.3
			v-0.7c0-0.1,0-0.2,0.1-0.3c0.1-0.1,0.2-0.1,0.3-0.1h0.7c0.1,0,0.2,0,0.3-0.1c0.1-0.1,0.1-0.2,0.1-0.3v-0.7c0-0.1,0-0.2,0.1-0.3
			c0.1-0.1,0.2-0.1,0.3-0.1H16c0.1,0,0.2,0,0.3,0.1c0.1,0.1,0.1,0.2,0.1,0.3v0.7c0,0.1,0,0.2,0.1,0.3s0.2,0.1,0.3,0.1h0.7
			c0.1,0,0.2,0,0.3,0.1c0.1,0.1,0.1,0.2,0.1,0.3v0.7c0,0.1,0,0.2-0.1,0.3C17.7,15,17.6,15,17.5,15h-0.7c-0.1,0-0.2,0-0.3,0.1
			c-0.1,0.1-0.1,0.2-0.1,0.3V19c0,0.1,0,0.2,0.1,0.3s0.2,0.1,0.3,0.1h0.7c0.1,0,0.2,0,0.3,0.1c0.1,0.1,0.1,0.2,0.1,0.3v0.7
			c0,0.1,0,0.2-0.1,0.3c-0.1,0.1-0.2,0.1-0.3,0.1h-0.7C16.7,20.8,16.6,20.8,16.5,20.7z"/>
		<path d="M20.2,20.7c-0.1-0.1-0.1-0.2-0.1-0.3V11c0-0.1,0-0.2,0.1-0.3c0.1-0.1,0.2-0.1,0.3-0.1h0.7c0.1,0,0.2,0,0.3,0.1
			c0.1,0.1,0.1,0.2,0.1,0.3v2.1c0,0.1,0,0.2,0.1,0.3s0.2,0.1,0.3,0.1h2.3c0.1,0,0.2,0,0.3,0.1c0.1,0.1,0.1,0.2,0.1,0.3v0.7
			c0,0.1,0,0.2,0.1,0.3C24.9,15,25,15,25.1,15h0.7c0.1,0,0.2,0,0.3,0.1c0.1,0.1,0.1,0.2,0.1,0.3v5.1c0,0.1,0,0.2-0.1,0.3
			c-0.1,0.1-0.2,0.1-0.3,0.1h-0.7c-0.1,0-0.2,0-0.3-0.1c-0.1-0.1-0.1-0.2-0.1-0.3v-5.1c0-0.1,0-0.2-0.1-0.3C24.5,15,24.4,15,24.3,15
			H22c-0.1,0-0.2,0-0.3,0.1c-0.1,0.1-0.1,0.2-0.1,0.3v5.1c0,0.1,0,0.2-0.1,0.3c-0.1,0.1-0.2,0.1-0.3,0.1h-0.7
			C20.3,20.8,20.2,20.8,20.2,20.7z"/>
		<path d="M30,20.7c-0.1-0.1-0.1-0.2-0.1-0.3v-0.7c0-0.1,0-0.2-0.1-0.3c-0.1-0.1-0.2-0.1-0.3-0.1h-0.7c-0.1,0-0.2,0-0.3-0.1
			c-0.1-0.1-0.1-0.2-0.1-0.3v-3.6c0-0.1,0-0.2,0.1-0.3c0.1-0.1,0.2-0.1,0.3-0.1h0.7c0.1,0,0.2,0,0.3-0.1c0.1-0.1,0.1-0.2,0.1-0.3
			v-0.7c0-0.1,0-0.2,0.1-0.3c0.1-0.1,0.2-0.1,0.3-0.1h2.3c0.1,0,0.2,0,0.3,0.1c0.1,0.1,0.1,0.2,0.1,0.3v0.7c0,0.1,0,0.2,0.1,0.3
			c0.1,0.1,0.2,0.1,0.3,0.1h0.7c0.1,0,0.2,0,0.3,0.1c0.1,0.1,0.1,0.2,0.1,0.3v2.2c0,0.1,0,0.2-0.1,0.3c-0.1,0.1-0.2,0.1-0.3,0.1
			h-3.8c-0.1,0-0.2,0-0.3,0.1s-0.1,0.2-0.1,0.3V19c0,0.1,0,0.2,0.1,0.3s0.2,0.1,0.3,0.1h2.3c0.1,0,0.2,0,0.3,0.1
			c0.1,0.1,0.1,0.2,0.1,0.3v0.7c0,0.1,0,0.2-0.1,0.3c-0.1,0.1-0.2,0.1-0.3,0.1h-2.3C30.2,20.8,30.1,20.8,30,20.7z M32.6,16.5
			c0.1,0,0.2,0,0.3-0.1c0.1-0.1,0.1-0.2,0.1-0.3v-0.7c0-0.1,0-0.2-0.1-0.3C32.8,15,32.7,15,32.6,15h-2.3c-0.1,0-0.2,0-0.3,0.1
			c-0.1,0.1-0.1,0.2-0.1,0.3v0.7c0,0.1,0,0.2,0.1,0.3c0.1,0.1,0.2,0.1,0.3,0.1H32.6z"/>
	</g>
	<g class="st1">
		<path class="st2" d="M16.5,20.7c-0.1-0.1-0.1-0.2-0.1-0.3v-0.7c0-0.1,0-0.2-0.1-0.3c-0.1-0.1-0.2-0.1-0.3-0.1h-0.7
			c-0.1,0-0.2,0-0.3-0.1c-0.1-0.1-0.1-0.2-0.1-0.3v-3.6c0-0.1,0-0.2-0.1-0.3C14.6,15,14.5,15,14.4,15h-0.7c-0.1,0-0.2,0-0.3-0.1
			c-0.1-0.1-0.1-0.2-0.1-0.3v-0.7c0-0.1,0-0.2,0.1-0.3c0.1-0.1,0.2-0.1,0.3-0.1h0.7c0.1,0,0.2,0,0.3-0.1c0.1-0.1,0.1-0.2,0.1-0.3
			v-0.7c0-0.1,0-0.2,0.1-0.3c0.1-0.1,0.2-0.1,0.3-0.1H16c0.1,0,0.2,0,0.3,0.1c0.1,0.1,0.1,0.2,0.1,0.3v0.7c0,0.1,0,0.2,0.1,0.3
			s0.2,0.1,0.3,0.1h0.7c0.1,0,0.2,0,0.3,0.1c0.1,0.1,0.1,0.2,0.1,0.3v0.7c0,0.1,0,0.2-0.1,0.3C17.7,15,17.6,15,17.5,15h-0.7
			c-0.1,0-0.2,0-0.3,0.1c-0.1,0.1-0.1,0.2-0.1,0.3V19c0,0.1,0,0.2,0.1,0.3s0.2,0.1,0.3,0.1h0.7c0.1,0,0.2,0,0.3,0.1
			c0.1,0.1,0.1,0.2,0.1,0.3v0.7c0,0.1,0,0.2-0.1,0.3c-0.1,0.1-0.2,0.1-0.3,0.1h-0.7C16.7,20.8,16.6,20.8,16.5,20.7z"/>
		<path class="st2" d="M20.2,20.7c-0.1-0.1-0.1-0.2-0.1-0.3V11c0-0.1,0-0.2,0.1-0.3c0.1-0.1,0.2-0.1,0.3-0.1h0.7
			c0.1,0,0.2,0,0.3,0.1c0.1,0.1,0.1,0.2,0.1,0.3v2.1c0,0.1,0,0.2,0.1,0.3s0.2,0.1,0.3,0.1h2.3c0.1,0,0.2,0,0.3,0.1
			c0.1,0.1,0.1,0.2,0.1,0.3v0.7c0,0.1,0,0.2,0.1,0.3C24.9,15,25,15,25.1,15h0.7c0.1,0,0.2,0,0.3,0.1c0.1,0.1,0.1,0.2,0.1,0.3v5.1
			c0,0.1,0,0.2-0.1,0.3c-0.1,0.1-0.2,0.1-0.3,0.1h-0.7c-0.1,0-0.2,0-0.3-0.1c-0.1-0.1-0.1-0.2-0.1-0.3v-5.1c0-0.1,0-0.2-0.1-0.3
			C24.5,15,24.4,15,24.3,15H22c-0.1,0-0.2,0-0.3,0.1c-0.1,0.1-0.1,0.2-0.1,0.3v5.1c0,0.1,0,0.2-0.1,0.3c-0.1,0.1-0.2,0.1-0.3,0.1
			h-0.7C20.3,20.8,20.2,20.8,20.2,20.7z"/>
		<path class="st2" d="M30,20.7c-0.1-0.1-0.1-0.2-0.1-0.3v-0.7c0-0.1,0-0.2-0.1-0.3c-0.1-0.1-0.2-0.1-0.3-0.1h-0.7
			c-0.1,0-0.2,0-0.3-0.1c-0.1-0.1-0.1-0.2-0.1-0.3v-3.6c0-0.1,0-0.2,0.1-0.3c0.1-0.1,0.2-0.1,0.3-0.1h0.7c0.1,0,0.2,0,0.3-0.1
			c0.1-0.1,0.1-0.2,0.1-0.3v-0.7c0-0.1,0-0.2,0.1-0.3c0.1-0.1,0.2-0.1,0.3-0.1h2.3c0.1,0,0.2,0,0.3,0.1c0.1,0.1,0.1,0.2,0.1,0.3v0.7
			c0,0.1,0,0.2,0.1,0.3c0.1,0.1,0.2,0.1,0.3,0.1h0.7c0.1,0,0.2,0,0.3,0.1c0.1,0.1,0.1,0.2,0.1,0.3v2.2c0,0.1,0,0.2-0.1,0.3
			c-0.1,0.1-0.2,0.1-0.3,0.1h-3.8c-0.1,0-0.2,0-0.3,0.1s-0.1,0.2-0.1,0.3V19c0,0.1,0,0.2,0.1,0.3s0.2,0.1,0.3,0.1h2.3
			c0.1,0,0.2,0,0.3,0.1c0.1,0.1,0.1,0.2,0.1,0.3v0.7c0,0.1,0,0.2-0.1,0.3c-0.1,0.1-0.2,0.1-0.3,0.1h-2.3
			C30.2,20.8,30.1,20.8,30,20.7z M32.6,16.5c0.1,0,0.2,0,0.3-0.1c0.1-0.1,0.1-0.2,0.1-0.3v-0.7c0-0.1,0-0.2-0.1-0.3
			C32.8,15,32.7,15,32.6,15h-2.3c-0.1,0-0.2,0-0.3,0.1c-0.1,0.1-0.1,0.2-0.1,0.3v0.7c0,0.1,0,0.2,0.1,0.3c0.1,0.1,0.2,0.1,0.3,0.1
			H32.6z"/>
	</g>
	<g class="st1">
		<path d="M16.8,37.1c-0.1-0.1-0.2-0.3-0.2-0.4v-1.1c0-0.2,0.1-0.3,0.2-0.4c0.1-0.1,0.3-0.2,0.5-0.2H21c0.2,0,0.3-0.1,0.5-0.2
			s0.2-0.3,0.2-0.4v-1.1c0-0.2-0.1-0.3-0.2-0.4s-0.3-0.2-0.5-0.2h-1.2c-0.2,0-0.3-0.1-0.5-0.2c-0.1-0.1-0.2-0.3-0.2-0.4v-1.2
			c0-0.2-0.1-0.3-0.2-0.4c-0.1-0.1-0.3-0.2-0.5-0.2h-1.2c-0.2,0-0.3-0.1-0.5-0.2c-0.1-0.1-0.2-0.3-0.2-0.4v-1.2
			c0-0.2,0.1-0.3,0.2-0.4s0.3-0.2,0.5-0.2h1.2c0.2,0,0.3-0.1,0.5-0.2c0.1-0.1,0.2-0.3,0.2-0.4v-1.2c0-0.2,0.1-0.3,0.2-0.4
			c0.1-0.1,0.3-0.2,0.5-0.2h3.8c0.2,0,0.3,0.1,0.4,0.2c0.1,0.1,0.2,0.3,0.2,0.4v1.2c0,0.2-0.1,0.3-0.2,0.4s-0.3,0.2-0.4,0.2h-3.8
			c-0.2,0-0.3,0.1-0.5,0.2c-0.1,0.1-0.2,0.3-0.2,0.4v1.2c0,0.2,0.1,0.3,0.2,0.4c0.1,0.1,0.3,0.2,0.5,0.2H21c0.2,0,0.3,0.1,0.5,0.2
			s0.2,0.3,0.2,0.4v1.2c0,0.2,0.1,0.3,0.2,0.4c0.1,0.1,0.3,0.2,0.5,0.2h1.2c0.2,0,0.3,0.1,0.4,0.2s0.2,0.3,0.2,0.4v1.1
			c0,0.2-0.1,0.3-0.2,0.4s-0.3,0.2-0.4,0.2h-1.2c-0.2,0-0.3,0.1-0.5,0.2c-0.1,0.1-0.2,0.3-0.2,0.4v1.1c0,0.2-0.1,0.3-0.2,0.4
			c-0.1,0.1-0.3,0.2-0.5,0.2h-3.7C17.1,37.3,16.9,37.3,16.8,37.1z"/>
		<path d="M31.9,37.1c-0.1-0.1-0.2-0.3-0.2-0.4v-1.1c0-0.2-0.1-0.3-0.2-0.4c-0.1-0.1-0.3-0.2-0.5-0.2h-1.2c-0.2,0-0.3-0.1-0.5-0.2
			s-0.2-0.3-0.2-0.4v-6c0-0.2,0.1-0.3,0.2-0.4c0.1-0.1,0.3-0.2,0.5-0.2h1.2c0.2,0,0.3-0.1,0.5-0.2c0.1-0.1,0.2-0.3,0.2-0.4v-1.2
			c0-0.2,0.1-0.3,0.2-0.4c0.1-0.1,0.3-0.2,0.5-0.2h3.8c0.2,0,0.3,0.1,0.4,0.2c0.1,0.1,0.2,0.3,0.2,0.4v1.2c0,0.2,0.1,0.3,0.2,0.4
			c0.1,0.1,0.3,0.2,0.5,0.2h1.2c0.2,0,0.3,0.1,0.5,0.2c0.1,0.1,0.2,0.3,0.2,0.4v6c0,0.2-0.1,0.3-0.2,0.4c-0.1,0.1-0.3,0.2-0.5,0.2
			h-1.2c-0.2,0-0.3,0.1-0.5,0.2c-0.1,0.1-0.2,0.3-0.2,0.4v1.1c0,0.2-0.1,0.3-0.2,0.4c-0.1,0.1-0.3,0.2-0.4,0.2h-3.8
			C32.2,37.3,32.1,37.3,31.9,37.1z M36.2,34.9c0.2,0,0.3-0.1,0.4-0.2c0.1-0.1,0.2-0.3,0.2-0.4v-6c0-0.2-0.1-0.3-0.2-0.4
			c-0.1-0.1-0.3-0.2-0.4-0.2h-3.8c-0.2,0-0.3,0.1-0.5,0.2c-0.1,0.1-0.2,0.3-0.2,0.4v6c0,0.2,0.1,0.3,0.2,0.4s0.3,0.2,0.5,0.2H36.2z"
			/>
		<path d="M47.1,37.1c-0.1-0.1-0.2-0.3-0.2-0.4v-1.1c0-0.2-0.1-0.3-0.2-0.4c-0.1-0.1-0.3-0.2-0.5-0.2H45c-0.2,0-0.3-0.1-0.5-0.2
			s-0.2-0.3-0.2-0.4v-8.4c0-0.2,0.1-0.3,0.2-0.4s0.3-0.2,0.5-0.2h1.2c0.2,0,0.3,0.1,0.5,0.2c0.1,0.1,0.2,0.3,0.2,0.4v8.4
			c0,0.2,0.1,0.3,0.2,0.4s0.3,0.2,0.5,0.2h3.8c0.2,0,0.3-0.1,0.4-0.2c0.1-0.1,0.2-0.3,0.2-0.4v-8.4c0-0.2,0.1-0.3,0.2-0.4
			c0.1-0.1,0.3-0.2,0.5-0.2h1.2c0.2,0,0.3,0.1,0.5,0.2c0.1,0.1,0.2,0.3,0.2,0.4v10.8c0,0.2-0.1,0.3-0.2,0.4
			c-0.1,0.1-0.3,0.2-0.5,0.2h-6.3C47.4,37.3,47.2,37.3,47.1,37.1z"/>
		<path d="M59.7,37.1c-0.1-0.1-0.2-0.3-0.2-0.4V25.9c0-0.2,0.1-0.3,0.2-0.4s0.3-0.2,0.5-0.2h6.3c0.2,0,0.3,0.1,0.4,0.2
			c0.1,0.1,0.2,0.3,0.2,0.4v1.2c0,0.2-0.1,0.3-0.2,0.4s-0.3,0.2-0.4,0.2h-3.8c-0.2,0-0.3,0.1-0.5,0.2c-0.1,0.1-0.2,0.3-0.2,0.4v8.4
			c0,0.2-0.1,0.3-0.2,0.4c-0.1,0.1-0.3,0.2-0.5,0.2h-1.2C60,37.3,59.9,37.3,59.7,37.1z"/>
		<path d="M72.4,37.1c-0.1-0.1-0.2-0.3-0.2-0.4v-1.1c0-0.2-0.1-0.3-0.2-0.4c-0.1-0.1-0.3-0.2-0.5-0.2h-1.2c-0.2,0-0.3-0.1-0.5-0.2
			s-0.2-0.3-0.2-0.4v-6c0-0.2,0.1-0.3,0.2-0.4c0.1-0.1,0.3-0.2,0.5-0.2h1.2c0.2,0,0.3-0.1,0.5-0.2c0.1-0.1,0.2-0.3,0.2-0.4v-1.2
			c0-0.2,0.1-0.3,0.2-0.4c0.1-0.1,0.3-0.2,0.5-0.2h3.8c0.2,0,0.3,0.1,0.4,0.2c0.1,0.1,0.2,0.3,0.2,0.4v1.2c0,0.2-0.1,0.3-0.2,0.4
			s-0.3,0.2-0.4,0.2h-3.8c-0.2,0-0.3,0.1-0.5,0.2c-0.1,0.1-0.2,0.3-0.2,0.4v6c0,0.2,0.1,0.3,0.2,0.4s0.3,0.2,0.5,0.2h3.8
			c0.2,0,0.3,0.1,0.4,0.2c0.1,0.1,0.2,0.3,0.2,0.4v1.1c0,0.2-0.1,0.3-0.2,0.4c-0.1,0.1-0.3,0.2-0.4,0.2h-3.8
			C72.7,37.3,72.5,37.3,72.4,37.1z"/>
		<path d="M85,37.1c-0.1-0.1-0.2-0.3-0.2-0.4v-1.1c0-0.2-0.1-0.3-0.2-0.4c-0.1-0.1-0.3-0.2-0.5-0.2h-1.2c-0.2,0-0.3-0.1-0.5-0.2
			s-0.2-0.3-0.2-0.4v-6c0-0.2,0.1-0.3,0.2-0.4c0.1-0.1,0.3-0.2,0.5-0.2h1.2c0.2,0,0.3-0.1,0.5-0.2c0.1-0.1,0.2-0.3,0.2-0.4v-1.2
			c0-0.2,0.1-0.3,0.2-0.4c0.1-0.1,0.3-0.2,0.5-0.2h3.8c0.2,0,0.3,0.1,0.4,0.2c0.1,0.1,0.2,0.3,0.2,0.4v1.2c0,0.2,0.1,0.3,0.2,0.4
			s0.3,0.2,0.5,0.2h1.2c0.2,0,0.3,0.1,0.5,0.2s0.2,0.3,0.2,0.4v3.6c0,0.2-0.1,0.3-0.2,0.4c-0.1,0.1-0.3,0.2-0.5,0.2h-6.3
			c-0.2,0-0.3,0.1-0.5,0.2c-0.1,0.1-0.2,0.3-0.2,0.4v1.1c0,0.2,0.1,0.3,0.2,0.4c0.1,0.1,0.3,0.2,0.5,0.2h3.8c0.2,0,0.3,0.1,0.4,0.2
			c0.1,0.1,0.2,0.3,0.2,0.4v1.1c0,0.2-0.1,0.3-0.2,0.4c-0.1,0.1-0.3,0.2-0.4,0.2h-3.8C85.3,37.3,85.1,37.3,85,37.1z M89.2,30.1
			c0.2,0,0.3-0.1,0.4-0.2c0.1-0.1,0.2-0.3,0.2-0.4v-1.2c0-0.2-0.1-0.3-0.2-0.4c-0.1-0.1-0.3-0.2-0.4-0.2h-3.8
			c-0.2,0-0.3,0.1-0.5,0.2c-0.1,0.1-0.2,0.3-0.2,0.4v1.2c0,0.2,0.1,0.3,0.2,0.4c0.1,0.1,0.3,0.2,0.5,0.2H89.2z"/>
	</g>
	<g class="st1">
		<path class="st2" d="M16.8,37.1c-0.1-0.1-0.2-0.3-0.2-0.4v-1.1c0-0.2,0.1-0.3,0.2-0.4c0.1-0.1,0.3-0.2,0.5-0.2H21
			c0.2,0,0.3-0.1,0.5-0.2s0.2-0.3,0.2-0.4v-1.1c0-0.2-0.1-0.3-0.2-0.4s-0.3-0.2-0.5-0.2h-1.2c-0.2,0-0.3-0.1-0.5-0.2
			c-0.1-0.1-0.2-0.3-0.2-0.4v-1.2c0-0.2-0.1-0.3-0.2-0.4c-0.1-0.1-0.3-0.2-0.5-0.2h-1.2c-0.2,0-0.3-0.1-0.5-0.2
			c-0.1-0.1-0.2-0.3-0.2-0.4v-1.2c0-0.2,0.1-0.3,0.2-0.4s0.3-0.2,0.5-0.2h1.2c0.2,0,0.3-0.1,0.5-0.2c0.1-0.1,0.2-0.3,0.2-0.4v-1.2
			c0-0.2,0.1-0.3,0.2-0.4c0.1-0.1,0.3-0.2,0.5-0.2h3.8c0.2,0,0.3,0.1,0.4,0.2c0.1,0.1,0.2,0.3,0.2,0.4v1.2c0,0.2-0.1,0.3-0.2,0.4
			s-0.3,0.2-0.4,0.2h-3.8c-0.2,0-0.3,0.1-0.5,0.2c-0.1,0.1-0.2,0.3-0.2,0.4v1.2c0,0.2,0.1,0.3,0.2,0.4c0.1,0.1,0.3,0.2,0.5,0.2H21
			c0.2,0,0.3,0.1,0.5,0.2s0.2,0.3,0.2,0.4v1.2c0,0.2,0.1,0.3,0.2,0.4c0.1,0.1,0.3,0.2,0.5,0.2h1.2c0.2,0,0.3,0.1,0.4,0.2
			s0.2,0.3,0.2,0.4v1.1c0,0.2-0.1,0.3-0.2,0.4s-0.3,0.2-0.4,0.2h-1.2c-0.2,0-0.3,0.1-0.5,0.2c-0.1,0.1-0.2,0.3-0.2,0.4v1.1
			c0,0.2-0.1,0.3-0.2,0.4c-0.1,0.1-0.3,0.2-0.5,0.2h-3.7C17.1,37.3,16.9,37.3,16.8,37.1z"/>
		<path class="st2" d="M31.9,37.1c-0.1-0.1-0.2-0.3-0.2-0.4v-1.1c0-0.2-0.1-0.3-0.2-0.4c-0.1-0.1-0.3-0.2-0.5-0.2h-1.2
			c-0.2,0-0.3-0.1-0.5-0.2s-0.2-0.3-0.2-0.4v-6c0-0.2,0.1-0.3,0.2-0.4c0.1-0.1,0.3-0.2,0.5-0.2h1.2c0.2,0,0.3-0.1,0.5-0.2
			c0.1-0.1,0.2-0.3,0.2-0.4v-1.2c0-0.2,0.1-0.3,0.2-0.4c0.1-0.1,0.3-0.2,0.5-0.2h3.8c0.2,0,0.3,0.1,0.4,0.2c0.1,0.1,0.2,0.3,0.2,0.4
			v1.2c0,0.2,0.1,0.3,0.2,0.4c0.1,0.1,0.3,0.2,0.5,0.2h1.2c0.2,0,0.3,0.1,0.5,0.2c0.1,0.1,0.2,0.3,0.2,0.4v6c0,0.2-0.1,0.3-0.2,0.4
			c-0.1,0.1-0.3,0.2-0.5,0.2h-1.2c-0.2,0-0.3,0.1-0.5,0.2c-0.1,0.1-0.2,0.3-0.2,0.4v1.1c0,0.2-0.1,0.3-0.2,0.4
			c-0.1,0.1-0.3,0.2-0.4,0.2h-3.8C32.2,37.3,32.1,37.3,31.9,37.1z M36.2,34.9c0.2,0,0.3-0.1,0.4-0.2c0.1-0.1,0.2-0.3,0.2-0.4v-6
			c0-0.2-0.1-0.3-0.2-0.4c-0.1-0.1-0.3-0.2-0.4-0.2h-3.8c-0.2,0-0.3,0.1-0.5,0.2c-0.1,0.1-0.2,0.3-0.2,0.4v6c0,0.2,0.1,0.3,0.2,0.4
			s0.3,0.2,0.5,0.2H36.2z"/>
		<path class="st2" d="M47.1,37.1c-0.1-0.1-0.2-0.3-0.2-0.4v-1.1c0-0.2-0.1-0.3-0.2-0.4c-0.1-0.1-0.3-0.2-0.5-0.2H45
			c-0.2,0-0.3-0.1-0.5-0.2s-0.2-0.3-0.2-0.4v-8.4c0-0.2,0.1-0.3,0.2-0.4s0.3-0.2,0.5-0.2h1.2c0.2,0,0.3,0.1,0.5,0.2
			c0.1,0.1,0.2,0.3,0.2,0.4v8.4c0,0.2,0.1,0.3,0.2,0.4s0.3,0.2,0.5,0.2h3.8c0.2,0,0.3-0.1,0.4-0.2c0.1-0.1,0.2-0.3,0.2-0.4v-8.4
			c0-0.2,0.1-0.3,0.2-0.4c0.1-0.1,0.3-0.2,0.5-0.2h1.2c0.2,0,0.3,0.1,0.5,0.2c0.1,0.1,0.2,0.3,0.2,0.4v10.8c0,0.2-0.1,0.3-0.2,0.4
			c-0.1,0.1-0.3,0.2-0.5,0.2h-6.3C47.4,37.3,47.2,37.3,47.1,37.1z"/>
		<path class="st2" d="M59.7,37.1c-0.1-0.1-0.2-0.3-0.2-0.4V25.9c0-0.2,0.1-0.3,0.2-0.4s0.3-0.2,0.5-0.2h6.3c0.2,0,0.3,0.1,0.4,0.2
			c0.1,0.1,0.2,0.3,0.2,0.4v1.2c0,0.2-0.1,0.3-0.2,0.4s-0.3,0.2-0.4,0.2h-3.8c-0.2,0-0.3,0.1-0.5,0.2c-0.1,0.1-0.2,0.3-0.2,0.4v8.4
			c0,0.2-0.1,0.3-0.2,0.4c-0.1,0.1-0.3,0.2-0.5,0.2h-1.2C60,37.3,59.9,37.3,59.7,37.1z"/>
		<path class="st2" d="M72.4,37.1c-0.1-0.1-0.2-0.3-0.2-0.4v-1.1c0-0.2-0.1-0.3-0.2-0.4c-0.1-0.1-0.3-0.2-0.5-0.2h-1.2
			c-0.2,0-0.3-0.1-0.5-0.2s-0.2-0.3-0.2-0.4v-6c0-0.2,0.1-0.3,0.2-0.4c0.1-0.1,0.3-0.2,0.5-0.2h1.2c0.2,0,0.3-0.1,0.5-0.2
			c0.1-0.1,0.2-0.3,0.2-0.4v-1.2c0-0.2,0.1-0.3,0.2-0.4c0.1-0.1,0.3-0.2,0.5-0.2h3.8c0.2,0,0.3,0.1,0.4,0.2c0.1,0.1,0.2,0.3,0.2,0.4
			v1.2c0,0.2-0.1,0.3-0.2,0.4s-0.3,0.2-0.4,0.2h-3.8c-0.2,0-0.3,0.1-0.5,0.2c-0.1,0.1-0.2,0.3-0.2,0.4v6c0,0.2,0.1,0.3,0.2,0.4
			s0.3,0.2,0.5,0.2h3.8c0.2,0,0.3,0.1,0.4,0.2c0.1,0.1,0.2,0.3,0.2,0.4v1.1c0,0.2-0.1,0.3-0.2,0.4c-0.1,0.1-0.3,0.2-0.4,0.2h-3.8
			C72.7,37.3,72.5,37.3,72.4,37.1z"/>
		<path class="st2" d="M85,37.1c-0.1-0.1-0.2-0.3-0.2-0.4v-1.1c0-0.2-0.1-0.3-0.2-0.4c-0.1-0.1-0.3-0.2-0.5-0.2h-1.2
			c-0.2,0-0.3-0.1-0.5-0.2s-0.2-0.3-0.2-0.4v-6c0-0.2,0.1-0.3,0.2-0.4c0.1-0.1,0.3-0.2,0.5-0.2h1.2c0.2,0,0.3-0.1,0.5-0.2
			c0.1-0.1,0.2-0.3,0.2-0.4v-1.2c0-0.2,0.1-0.3,0.2-0.4c0.1-0.1,0.3-0.2,0.5-0.2h3.8c0.2,0,0.3,0.1,0.4,0.2c0.1,0.1,0.2,0.3,0.2,0.4
			v1.2c0,0.2,0.1,0.3,0.2,0.4s0.3,0.2,0.5,0.2h1.2c0.2,0,0.3,0.1,0.5,0.2s0.2,0.3,0.2,0.4v3.6c0,0.2-0.1,0.3-0.2,0.4
			c-0.1,0.1-0.3,0.2-0.5,0.2h-6.3c-0.2,0-0.3,0.1-0.5,0.2c-0.1,0.1-0.2,0.3-0.2,0.4v1.1c0,0.2,0.1,0.3,0.2,0.4
			c0.1,0.1,0.3,0.2,0.5,0.2h3.8c0.2,0,0.3,0.1,0.4,0.2c0.1,0.1,0.2,0.3,0.2,0.4v1.1c0,0.2-0.1,0.3-0.2,0.4c-0.1,0.1-0.3,0.2-0.4,0.2
			h-3.8C85.3,37.3,85.1,37.3,85,37.1z M89.2,30.1c0.2,0,0.3-0.1,0.4-0.2c0.1-0.1,0.2-0.3,0.2-0.4v-1.2c0-0.2-0.1-0.3-0.2-0.4
			c-0.1-0.1-0.3-0.2-0.4-0.2h-3.8c-0.2,0-0.3,0.1-0.5,0.2c-0.1,0.1-0.2,0.3-0.2,0.4v1.2c0,0.2,0.1,0.3,0.2,0.4
			c0.1,0.1,0.3,0.2,0.5,0.2H89.2z"/>
	</g>
	<g class="st1">
		<path d="M42.3,20.6c-0.1-0.1-0.2-0.3-0.2-0.4v-1.1c0-0.2-0.1-0.3-0.2-0.4c-0.1-0.1-0.3-0.2-0.5-0.2h-1.2c-0.2,0-0.3-0.1-0.5-0.2
			c-0.1-0.1-0.2-0.3-0.2-0.4V9.6c0-0.2,0.1-0.3,0.2-0.4C39.9,9.1,40,9,40.2,9h1.2c0.2,0,0.3-0.1,0.5-0.2c0.1-0.1,0.2-0.3,0.2-0.4
			V7.3c0-0.2,0.1-0.3,0.2-0.4c0.1-0.1,0.3-0.2,0.5-0.2h6.3c0.2,0,0.3,0.1,0.5,0.2c0.1,0.1,0.2,0.3,0.2,0.4v3.5
			c0,0.2-0.1,0.3-0.2,0.4c-0.1,0.1-0.3,0.2-0.5,0.2h-1.2c-0.2,0-0.3-0.1-0.5-0.2c-0.1-0.1-0.2-0.3-0.2-0.4V9.6
			c0-0.2-0.1-0.3-0.2-0.4C46.9,9.1,46.7,9,46.5,9h-3.8c-0.2,0-0.3,0.1-0.5,0.2c-0.1,0.1-0.2,0.3-0.2,0.4v8.2c0,0.2,0.1,0.3,0.2,0.4
			c0.1,0.1,0.3,0.2,0.5,0.2h3.8c0.2,0,0.3-0.1,0.4-0.2c0.1-0.1,0.2-0.3,0.2-0.4v-1.1c0-0.2,0.1-0.3,0.2-0.4c0.1-0.1,0.3-0.2,0.5-0.2
			h1.2c0.2,0,0.3,0.1,0.5,0.2c0.1,0.1,0.2,0.3,0.2,0.4v1.1c0,0.2-0.1,0.3-0.2,0.4c-0.1,0.1-0.3,0.2-0.5,0.2h-1.2
			c-0.2,0-0.3,0.1-0.5,0.2c-0.1,0.1-0.2,0.3-0.2,0.4v1.1c0,0.2-0.1,0.3-0.2,0.4c-0.1,0.1-0.3,0.2-0.4,0.2h-3.8
			C42.6,20.8,42.4,20.8,42.3,20.6z"/>
		<path d="M57.6,20.6c-0.1-0.1-0.2-0.3-0.2-0.4v-1.1c0-0.2-0.1-0.3-0.2-0.4c-0.1-0.1-0.3-0.2-0.5-0.2h-1.2c-0.2,0-0.3-0.1-0.5-0.2
			c-0.1-0.1-0.2-0.3-0.2-0.4V9.6c0-0.2,0.1-0.3,0.2-0.4C55.1,9.1,55.3,9,55.5,9h1.2C56.9,9,57,9,57.2,8.9c0.1-0.1,0.2-0.3,0.2-0.4
			V7.3c0-0.2,0.1-0.3,0.2-0.4c0.1-0.1,0.3-0.2,0.5-0.2h3.8c0.2,0,0.3,0.1,0.4,0.2c0.1,0.1,0.2,0.3,0.2,0.4v1.1
			c0,0.2,0.1,0.3,0.2,0.4C62.8,9,62.9,9,63.1,9h1.2c0.2,0,0.3,0.1,0.5,0.2C64.9,9.4,65,9.5,65,9.6v8.2c0,0.2-0.1,0.3-0.2,0.4
			c-0.1,0.1-0.3,0.2-0.5,0.2h-1.2c-0.2,0-0.3,0.1-0.5,0.2s-0.2,0.3-0.2,0.4v1.1c0,0.2-0.1,0.3-0.2,0.4c-0.1,0.1-0.3,0.2-0.4,0.2H58
			C57.8,20.8,57.7,20.8,57.6,20.6z M61.8,18.5c0.2,0,0.3-0.1,0.4-0.2c0.1-0.1,0.2-0.3,0.2-0.4V9.6c0-0.2-0.1-0.3-0.2-0.4
			C62.1,9.1,62,9,61.8,9H58c-0.2,0-0.3,0.1-0.5,0.2c-0.1,0.1-0.2,0.3-0.2,0.4v8.2c0,0.2,0.1,0.3,0.2,0.4c0.1,0.1,0.3,0.2,0.5,0.2
			H61.8z"/>
		<path d="M70.3,20.6c-0.1-0.1-0.2-0.3-0.2-0.4V7.3c0-0.2,0.1-0.3,0.2-0.4c0.1-0.1,0.3-0.2,0.5-0.2h6.3c0.2,0,0.3,0.1,0.4,0.2
			c0.1,0.1,0.2,0.3,0.2,0.4v1.1c0,0.2,0.1,0.3,0.2,0.4C78.1,9,78.2,9,78.4,9h1.2c0.2,0,0.3,0.1,0.5,0.2c0.1,0.1,0.2,0.3,0.2,0.4v8.2
			c0,0.2-0.1,0.3-0.2,0.4c-0.1,0.1-0.3,0.2-0.5,0.2h-1.2c-0.2,0-0.3,0.1-0.5,0.2c-0.1,0.1-0.2,0.3-0.2,0.4v1.1
			c0,0.2-0.1,0.3-0.2,0.4c-0.1,0.1-0.3,0.2-0.4,0.2h-6.3C70.6,20.8,70.4,20.8,70.3,20.6z M77.1,18.5c0.2,0,0.3-0.1,0.4-0.2
			c0.1-0.1,0.2-0.3,0.2-0.4V9.6c0-0.2-0.1-0.3-0.2-0.4C77.4,9.1,77.2,9,77.1,9h-3.8c-0.2,0-0.3,0.1-0.5,0.2
			c-0.1,0.1-0.2,0.3-0.2,0.4v8.2c0,0.2,0.1,0.3,0.2,0.4c0.1,0.1,0.3,0.2,0.5,0.2H77.1z"/>
		<path d="M85.5,20.6c-0.1-0.1-0.2-0.3-0.2-0.4V7.3c0-0.2,0.1-0.3,0.2-0.4c0.1-0.1,0.3-0.2,0.5-0.2h6.3c0.2,0,0.3,0.1,0.4,0.2
			C92.9,7,93,7.1,93,7.3v1.1c0,0.2-0.1,0.3-0.2,0.4C92.6,9,92.5,9,92.3,9h-3.8c-0.2,0-0.3,0.1-0.5,0.2c-0.1,0.1-0.2,0.3-0.2,0.4v1.1
			c0,0.2,0.1,0.3,0.2,0.4c0.1,0.1,0.3,0.2,0.5,0.2h3.8c0.2,0,0.3,0.1,0.4,0.2c0.1,0.1,0.2,0.3,0.2,0.4v1.1c0,0.2-0.1,0.3-0.2,0.4
			c-0.1,0.1-0.3,0.2-0.4,0.2h-3.8c-0.2,0-0.3,0.1-0.5,0.2c-0.1,0.1-0.2,0.3-0.2,0.4v3.5c0,0.2,0.1,0.3,0.2,0.4
			c0.1,0.1,0.3,0.2,0.5,0.2h3.8c0.2,0,0.3,0.1,0.4,0.2c0.1,0.1,0.2,0.3,0.2,0.4v1.1c0,0.2-0.1,0.3-0.2,0.4c-0.1,0.1-0.3,0.2-0.4,0.2
			H86C85.8,20.8,85.7,20.8,85.5,20.6z"/>
	</g>
	<g class="st1">
		<path class="st2" d="M42.3,20.6c-0.1-0.1-0.2-0.3-0.2-0.4v-1.1c0-0.2-0.1-0.3-0.2-0.4c-0.1-0.1-0.3-0.2-0.5-0.2h-1.2
			c-0.2,0-0.3-0.1-0.5-0.2c-0.1-0.1-0.2-0.3-0.2-0.4V9.6c0-0.2,0.1-0.3,0.2-0.4C39.9,9.1,40,9,40.2,9h1.2c0.2,0,0.3-0.1,0.5-0.2
			c0.1-0.1,0.2-0.3,0.2-0.4V7.3c0-0.2,0.1-0.3,0.2-0.4c0.1-0.1,0.3-0.2,0.5-0.2h6.3c0.2,0,0.3,0.1,0.5,0.2c0.1,0.1,0.2,0.3,0.2,0.4
			v3.5c0,0.2-0.1,0.3-0.2,0.4c-0.1,0.1-0.3,0.2-0.5,0.2h-1.2c-0.2,0-0.3-0.1-0.5-0.2c-0.1-0.1-0.2-0.3-0.2-0.4V9.6
			c0-0.2-0.1-0.3-0.2-0.4C46.9,9.1,46.7,9,46.5,9h-3.8c-0.2,0-0.3,0.1-0.5,0.2c-0.1,0.1-0.2,0.3-0.2,0.4v8.2c0,0.2,0.1,0.3,0.2,0.4
			c0.1,0.1,0.3,0.2,0.5,0.2h3.8c0.2,0,0.3-0.1,0.4-0.2c0.1-0.1,0.2-0.3,0.2-0.4v-1.1c0-0.2,0.1-0.3,0.2-0.4c0.1-0.1,0.3-0.2,0.5-0.2
			h1.2c0.2,0,0.3,0.1,0.5,0.2c0.1,0.1,0.2,0.3,0.2,0.4v1.1c0,0.2-0.1,0.3-0.2,0.4c-0.1,0.1-0.3,0.2-0.5,0.2h-1.2
			c-0.2,0-0.3,0.1-0.5,0.2c-0.1,0.1-0.2,0.3-0.2,0.4v1.1c0,0.2-0.1,0.3-0.2,0.4c-0.1,0.1-0.3,0.2-0.4,0.2h-3.8
			C42.6,20.8,42.4,20.8,42.3,20.6z"/>
		<path class="st2" d="M57.6,20.6c-0.1-0.1-0.2-0.3-0.2-0.4v-1.1c0-0.2-0.1-0.3-0.2-0.4c-0.1-0.1-0.3-0.2-0.5-0.2h-1.2
			c-0.2,0-0.3-0.1-0.5-0.2c-0.1-0.1-0.2-0.3-0.2-0.4V9.6c0-0.2,0.1-0.3,0.2-0.4C55.1,9.1,55.3,9,55.5,9h1.2C56.9,9,57,9,57.2,8.9
			c0.1-0.1,0.2-0.3,0.2-0.4V7.3c0-0.2,0.1-0.3,0.2-0.4c0.1-0.1,0.3-0.2,0.5-0.2h3.8c0.2,0,0.3,0.1,0.4,0.2c0.1,0.1,0.2,0.3,0.2,0.4
			v1.1c0,0.2,0.1,0.3,0.2,0.4C62.8,9,62.9,9,63.1,9h1.2c0.2,0,0.3,0.1,0.5,0.2C64.9,9.4,65,9.5,65,9.6v8.2c0,0.2-0.1,0.3-0.2,0.4
			c-0.1,0.1-0.3,0.2-0.5,0.2h-1.2c-0.2,0-0.3,0.1-0.5,0.2s-0.2,0.3-0.2,0.4v1.1c0,0.2-0.1,0.3-0.2,0.4c-0.1,0.1-0.3,0.2-0.4,0.2H58
			C57.8,20.8,57.7,20.8,57.6,20.6z M61.8,18.5c0.2,0,0.3-0.1,0.4-0.2c0.1-0.1,0.2-0.3,0.2-0.4V9.6c0-0.2-0.1-0.3-0.2-0.4
			C62.1,9.1,62,9,61.8,9H58c-0.2,0-0.3,0.1-0.5,0.2c-0.1,0.1-0.2,0.3-0.2,0.4v8.2c0,0.2,0.1,0.3,0.2,0.4c0.1,0.1,0.3,0.2,0.5,0.2
			H61.8z"/>
		<path class="st2" d="M70.3,20.6c-0.1-0.1-0.2-0.3-0.2-0.4V7.3c0-0.2,0.1-0.3,0.2-0.4c0.1-0.1,0.3-0.2,0.5-0.2h6.3
			c0.2,0,0.3,0.1,0.4,0.2c0.1,0.1,0.2,0.3,0.2,0.4v1.1c0,0.2,0.1,0.3,0.2,0.4C78.1,9,78.2,9,78.4,9h1.2c0.2,0,0.3,0.1,0.5,0.2
			c0.1,0.1,0.2,0.3,0.2,0.4v8.2c0,0.2-0.1,0.3-0.2,0.4c-0.1,0.1-0.3,0.2-0.5,0.2h-1.2c-0.2,0-0.3,0.1-0.5,0.2
			c-0.1,0.1-0.2,0.3-0.2,0.4v1.1c0,0.2-0.1,0.3-0.2,0.4c-0.1,0.1-0.3,0.2-0.4,0.2h-6.3C70.6,20.8,70.4,20.8,70.3,20.6z M77.1,18.5
			c0.2,0,0.3-0.1,0.4-0.2c0.1-0.1,0.2-0.3,0.2-0.4V9.6c0-0.2-0.1-0.3-0.2-0.4C77.4,9.1,77.2,9,77.1,9h-3.8c-0.2,0-0.3,0.1-0.5,0.2
			c-0.1,0.1-0.2,0.3-0.2,0.4v8.2c0,0.2,0.1,0.3,0.2,0.4c0.1,0.1,0.3,0.2,0.5,0.2H77.1z"/>
		<path class="st2" d="M85.5,20.6c-0.1-0.1-0.2-0.3-0.2-0.4V7.3c0-0.2,0.1-0.3,0.2-0.4c0.1-0.1,0.3-0.2,0.5-0.2h6.3
			c0.2,0,0.3,0.1,0.4,0.2C92.9,7,93,7.1,93,7.3v1.1c0,0.2-0.1,0.3-0.2,0.4C92.6,9,92.5,9,92.3,9h-3.8c-0.2,0-0.3,0.1-0.5,0.2
			c-0.1,0.1-0.2,0.3-0.2,0.4v1.1c0,0.2,0.1,0.3,0.2,0.4c0.1,0.1,0.3,0.2,0.5,0.2h3.8c0.2,0,0.3,0.1,0.4,0.2c0.1,0.1,0.2,0.3,0.2,0.4
			v1.1c0,0.2-0.1,0.3-0.2,0.4c-0.1,0.1-0.3,0.2-0.4,0.2h-3.8c-0.2,0-0.3,0.1-0.5,0.2c-0.1,0.1-0.2,0.3-0.2,0.4v3.5
			c0,0.2,0.1,0.3,0.2,0.4c0.1,0.1,0.3,0.2,0.5,0.2h3.8c0.2,0,0.3,0.1,0.4,0.2c0.1,0.1,0.2,0.3,0.2,0.4v1.1c0,0.2-0.1,0.3-0.2,0.4
			c-0.1,0.1-0.3,0.2-0.4,0.2H86C85.8,20.8,85.7,20.8,85.5,20.6z"/>
	</g>
	<g class="st1">
		<path d="M8.5,40.8c-0.1-0.2-0.2-0.5-0.2-0.8v-2c0-0.3-0.1-0.6-0.2-0.8C8,37,7.8,36.9,7.6,36.9H6.4c-0.2,0-0.3-0.1-0.5-0.3
			s-0.2-0.5-0.2-0.8V25.2c0-0.3-0.1-0.6-0.2-0.8c-0.1-0.2-0.3-0.3-0.5-0.3H3.8c-0.2,0-0.3-0.1-0.5-0.3c-0.1-0.2-0.2-0.5-0.2-0.8v-2
			c0-0.3,0.1-0.6,0.2-0.8c0.1-0.2,0.3-0.3,0.5-0.3h1.2c0.2,0,0.3-0.1,0.5-0.3c0.1-0.2,0.2-0.5,0.2-0.8V8.1c0-0.3,0.1-0.5,0.2-0.8
			C6.1,7.1,6.2,7,6.4,7h1.2C7.8,7,8,6.9,8.1,6.7c0.1-0.2,0.2-0.5,0.2-0.8v-2c0-0.3,0.1-0.5,0.2-0.8C8.6,2.9,8.8,2.8,9,2.8h1.2
			c0.2,0,0.3,0.1,0.4,0.3c0.1,0.2,0.2,0.5,0.2,0.8v2c0,0.3-0.1,0.6-0.2,0.8C10.5,6.9,10.4,7,10.2,7H9C8.8,7,8.6,7.1,8.5,7.4
			C8.4,7.6,8.3,7.8,8.3,8.1v10.6c0,0.3-0.1,0.5-0.2,0.8c-0.1,0.2-0.3,0.3-0.5,0.3H6.4c-0.2,0-0.3,0.1-0.5,0.3s-0.2,0.5-0.2,0.8v2
			c0,0.3,0.1,0.5,0.2,0.8c0.1,0.2,0.3,0.3,0.5,0.3h1.2c0.2,0,0.3,0.1,0.5,0.3c0.1,0.2,0.2,0.5,0.2,0.8v10.6c0,0.3,0.1,0.6,0.2,0.8
			s0.3,0.3,0.5,0.3h1.2c0.2,0,0.3,0.1,0.4,0.3c0.1,0.2,0.2,0.5,0.2,0.8v2c0,0.3-0.1,0.6-0.2,0.8c-0.1,0.2-0.3,0.3-0.4,0.3H9
			C8.8,41.1,8.6,41,8.5,40.8z"/>
	</g>
	<g class="st1">
		<path class="st2" d="M8.5,40.8c-0.1-0.2-0.2-0.5-0.2-0.8v-2c0-0.3-0.1-0.6-0.2-0.8C8,37,7.8,36.9,7.6,36.9H6.4
			c-0.2,0-0.3-0.1-0.5-0.3s-0.2-0.5-0.2-0.8V25.2c0-0.3-0.1-0.6-0.2-0.8c-0.1-0.2-0.3-0.3-0.5-0.3H3.8c-0.2,0-0.3-0.1-0.5-0.3
			c-0.1-0.2-0.2-0.5-0.2-0.8v-2c0-0.3,0.1-0.6,0.2-0.8c0.1-0.2,0.3-0.3,0.5-0.3h1.2c0.2,0,0.3-0.1,0.5-0.3c0.1-0.2,0.2-0.5,0.2-0.8
			V8.1c0-0.3,0.1-0.5,0.2-0.8C6.1,7.1,6.2,7,6.4,7h1.2C7.8,7,8,6.9,8.1,6.7c0.1-0.2,0.2-0.5,0.2-0.8v-2c0-0.3,0.1-0.5,0.2-0.8
			C8.6,2.9,8.8,2.8,9,2.8h1.2c0.2,0,0.3,0.1,0.4,0.3c0.1,0.2,0.2,0.5,0.2,0.8v2c0,0.3-0.1,0.6-0.2,0.8C10.5,6.9,10.4,7,10.2,7H9
			C8.8,7,8.6,7.1,8.5,7.4C8.4,7.6,8.3,7.8,8.3,8.1v10.6c0,0.3-0.1,0.5-0.2,0.8c-0.1,0.2-0.3,0.3-0.5,0.3H6.4c-0.2,0-0.3,0.1-0.5,0.3
			s-0.2,0.5-0.2,0.8v2c0,0.3,0.1,0.5,0.2,0.8c0.1,0.2,0.3,0.3,0.5,0.3h1.2c0.2,0,0.3,0.1,0.5,0.3c0.1,0.2,0.2,0.5,0.2,0.8v10.6
			c0,0.3,0.1,0.6,0.2,0.8s0.3,0.3,0.5,0.3h1.2c0.2,0,0.3,0.1,0.4,0.3c0.1,0.2,0.2,0.5,0.2,0.8v2c0,0.3-0.1,0.6-0.2,0.8
			c-0.1,0.2-0.3,0.3-0.4,0.3H9C8.8,41.1,8.6,41,8.5,40.8z"/>
	</g>
	<g class="st1">
		<path d="M98.8,40.8c-0.1-0.2-0.2-0.5-0.2-0.8v-2c0-0.3,0.1-0.6,0.2-0.8c0.1-0.2,0.3-0.3,0.5-0.3h1.2c0.2,0,0.3-0.1,0.5-0.3
			s0.2-0.5,0.2-0.8V25.2c0-0.3,0.1-0.6,0.2-0.8c0.1-0.2,0.3-0.3,0.5-0.3h1.2c0.2,0,0.3-0.1,0.5-0.3c0.1-0.2,0.2-0.5,0.2-0.8v-2
			c0-0.3-0.1-0.6-0.2-0.8c-0.1-0.2-0.3-0.3-0.5-0.3h-1.2c-0.2,0-0.3-0.1-0.5-0.3c-0.1-0.2-0.2-0.5-0.2-0.8V8.1
			c0-0.3-0.1-0.5-0.2-0.8c-0.1-0.2-0.3-0.3-0.5-0.3h-1.2c-0.2,0-0.3-0.1-0.5-0.3c-0.1-0.2-0.2-0.5-0.2-0.8v-2c0-0.3,0.1-0.5,0.2-0.8
			c0.1-0.2,0.3-0.3,0.5-0.3h1.2c0.2,0,0.3,0.1,0.5,0.3c0.1,0.2,0.2,0.5,0.2,0.8v2c0,0.3,0.1,0.6,0.2,0.8c0.1,0.2,0.3,0.3,0.5,0.3
			h1.2c0.2,0,0.3,0.1,0.5,0.3c0.1,0.2,0.2,0.5,0.2,0.8v10.6c0,0.3,0.1,0.5,0.2,0.8s0.3,0.3,0.5,0.3h1.2c0.2,0,0.3,0.1,0.4,0.3
			c0.1,0.2,0.2,0.5,0.2,0.8v2c0,0.3-0.1,0.5-0.2,0.8c-0.1,0.2-0.3,0.3-0.4,0.3h-1.2c-0.2,0-0.3,0.1-0.5,0.3
			c-0.1,0.2-0.2,0.5-0.2,0.8v10.6c0,0.3-0.1,0.6-0.2,0.8c-0.1,0.2-0.3,0.3-0.5,0.3h-1.2c-0.2,0-0.3,0.1-0.5,0.3
			c-0.1,0.2-0.2,0.5-0.2,0.8v2c0,0.3-0.1,0.6-0.2,0.8c-0.1,0.2-0.3,0.3-0.5,0.3h-1.2C99.1,41.1,98.9,41,98.8,40.8z"/>
	</g>
	<g class="st1">
		<path class="st2" d="M98.8,40.8c-0.1-0.2-0.2-0.5-0.2-0.8v-2c0-0.3,0.1-0.6,0.2-0.8c0.1-0.2,0.3-0.3,0.5-0.3h1.2
			c0.2,0,0.3-0.1,0.5-0.3s0.2-0.5,0.2-0.8V25.2c0-0.3,0.1-0.6,0.2-0.8c0.1-0.2,0.3-0.3,0.5-0.3h1.2c0.2,0,0.3-0.1,0.5-0.3
			c0.1-0.2,0.2-0.5,0.2-0.8v-2c0-0.3-0.1-0.6-0.2-0.8c-0.1-0.2-0.3-0.3-0.5-0.3h-1.2c-0.2,0-0.3-0.1-0.5-0.3
			c-0.1-0.2-0.2-0.5-0.2-0.8V8.1c0-0.3-0.1-0.5-0.2-0.8c-0.1-0.2-0.3-0.3-0.5-0.3h-1.2c-0.2,0-0.3-0.1-0.5-0.3
			c-0.1-0.2-0.2-0.5-0.2-0.8v-2c0-0.3,0.1-0.5,0.2-0.8c0.1-0.2,0.3-0.3,0.5-0.3h1.2c0.2,0,0.3,0.1,0.5,0.3c0.1,0.2,0.2,0.5,0.2,0.8
			v2c0,0.3,0.1,0.6,0.2,0.8c0.1,0.2,0.3,0.3,0.5,0.3h1.2c0.2,0,0.3,0.1,0.5,0.3c0.1,0.2,0.2,0.5,0.2,0.8v10.6c0,0.3,0.1,0.5,0.2,0.8
			s0.3,0.3,0.5,0.3h1.2c0.2,0,0.3,0.1,0.4,0.3c0.1,0.2,0.2,0.5,0.2,0.8v2c0,0.3-0.1,0.5-0.2,0.8c-0.1,0.2-0.3,0.3-0.4,0.3h-1.2
			c-0.2,0-0.3,0.1-0.5,0.3c-0.1,0.2-0.2,0.5-0.2,0.8v10.6c0,0.3-0.1,0.6-0.2,0.8c-0.1,0.2-0.3,0.3-0.5,0.3h-1.2
			c-0.2,0-0.3,0.1-0.5,0.3c-0.1,0.2-0.2,0.5-0.2,0.8v2c0,0.3-0.1,0.6-0.2,0.8c-0.1,0.2-0.3,0.3-0.5,0.3h-1.2
			C99.1,41.1,98.9,41,98.8,40.8z"/>
	</g>
	<g class="st1">
		<path d="M112.5,40.8c-0.1-0.2-0.2-0.5-0.2-0.8v-2c0-0.3,0.1-0.6,0.2-0.8c0.1-0.2,0.3-0.3,0.5-0.3h1.2c0.2,0,0.3-0.1,0.5-0.3
			s0.2-0.5,0.2-0.8v-2c0-0.3-0.1-0.6-0.2-0.8c-0.1-0.2-0.3-0.3-0.5-0.3h-1.2c-0.2,0-0.3-0.1-0.5-0.3c-0.1-0.2-0.2-0.5-0.2-0.8v-2
			c0-0.3,0.1-0.6,0.2-0.8s0.3-0.3,0.5-0.3h3.8c0.2,0,0.3,0.1,0.5,0.3s0.2,0.5,0.2,0.8v6.3c0,0.3-0.1,0.6-0.2,0.8s-0.3,0.3-0.5,0.3
			h-1.2c-0.2,0-0.3,0.1-0.5,0.3c-0.1,0.2-0.2,0.5-0.2,0.8v2c0,0.3-0.1,0.6-0.2,0.8c-0.1,0.2-0.3,0.3-0.5,0.3h-1.2
			C112.8,41.1,112.6,41,112.5,40.8z M115,19.5c-0.1-0.2-0.2-0.5-0.2-0.8v-2.1c0-0.3,0.1-0.5,0.2-0.7c0.1-0.2,0.3-0.3,0.5-0.3h1.2
			c0.2,0,0.3,0.1,0.5,0.3c0.1,0.2,0.2,0.5,0.2,0.7v2.1c0,0.3-0.1,0.5-0.2,0.8s-0.3,0.3-0.5,0.3h-1.2C115.3,19.8,115.2,19.7,115,19.5
			z"/>
	</g>
	<g class="st1">
		<path class="st2" d="M112.5,40.8c-0.1-0.2-0.2-0.5-0.2-0.8v-2c0-0.3,0.1-0.6,0.2-0.8c0.1-0.2,0.3-0.3,0.5-0.3h1.2
			c0.2,0,0.3-0.1,0.5-0.3s0.2-0.5,0.2-0.8v-2c0-0.3-0.1-0.6-0.2-0.8c-0.1-0.2-0.3-0.3-0.5-0.3h-1.2c-0.2,0-0.3-0.1-0.5-0.3
			c-0.1-0.2-0.2-0.5-0.2-0.8v-2c0-0.3,0.1-0.6,0.2-0.8s0.3-0.3,0.5-0.3h3.8c0.2,0,0.3,0.1,0.5,0.3s0.2,0.5,0.2,0.8v6.3
			c0,0.3-0.1,0.6-0.2,0.8s-0.3,0.3-0.5,0.3h-1.2c-0.2,0-0.3,0.1-0.5,0.3c-0.1,0.2-0.2,0.5-0.2,0.8v2c0,0.3-0.1,0.6-0.2,0.8
			c-0.1,0.2-0.3,0.3-0.5,0.3h-1.2C112.8,41.1,112.6,41,112.5,40.8z M115,19.5c-0.1-0.2-0.2-0.5-0.2-0.8v-2.1c0-0.3,0.1-0.5,0.2-0.7
			c0.1-0.2,0.3-0.3,0.5-0.3h1.2c0.2,0,0.3,0.1,0.5,0.3c0.1,0.2,0.2,0.5,0.2,0.7v2.1c0,0.3-0.1,0.5-0.2,0.8s-0.3,0.3-0.5,0.3h-1.2
			C115.3,19.8,115.2,19.7,115,19.5z"/>
	</g>
</g>
<g id="Group-2">
	<g class="st1">
		<path class="st3" d="M16.5,20.7c-0.1-0.1-0.1-0.2-0.1-0.3v-0.7c0-0.1,0-0.2-0.1-0.3c-0.1-0.1-0.2-0.1-0.3-0.1h-0.7
			c-0.1,0-0.2,0-0.3-0.1c-0.1-0.1-0.1-0.2-0.1-0.3v-3.6c0-0.1,0-0.2-0.1-0.3C14.6,15,14.5,15,14.4,15h-0.7c-0.1,0-0.2,0-0.3-0.1
			c-0.1-0.1-0.1-0.2-0.1-0.3v-0.7c0-0.1,0-0.2,0.1-0.3c0.1-0.1,0.2-0.1,0.3-0.1h0.7c0.1,0,0.2,0,0.3-0.1c0.1-0.1,0.1-0.2,0.1-0.3
			v-0.7c0-0.1,0-0.2,0.1-0.3c0.1-0.1,0.2-0.1,0.3-0.1H16c0.1,0,0.2,0,0.3,0.1c0.1,0.1,0.1,0.2,0.1,0.3v0.7c0,0.1,0,0.2,0.1,0.3
			s0.2,0.1,0.3,0.1h0.7c0.1,0,0.2,0,0.3,0.1c0.1,0.1,0.1,0.2,0.1,0.3v0.7c0,0.1,0,0.2-0.1,0.3C17.7,15,17.6,15,17.5,15h-0.7
			c-0.1,0-0.2,0-0.3,0.1c-0.1,0.1-0.1,0.2-0.1,0.3V19c0,0.1,0,0.2,0.1,0.3s0.2,0.1,0.3,0.1h0.7c0.1,0,0.2,0,0.3,0.1
			c0.1,0.1,0.1,0.2,0.1,0.3v0.7c0,0.1,0,0.2-0.1,0.3c-0.1,0.1-0.2,0.1-0.3,0.1h-0.7C16.7,20.8,16.6,20.8,16.5,20.7z"/>
		<path class="st3" d="M20.2,20.7c-0.1-0.1-0.1-0.2-0.1-0.3V11c0-0.1,0-0.2,0.1-0.3c0.1-0.1,0.2-0.1,0.3-0.1h0.7
			c0.1,0,0.2,0,0.3,0.1c0.1,0.1,0.1,0.2,0.1,0.3v2.1c0,0.1,0,0.2,0.1,0.3s0.2,0.1,0.3,0.1h2.3c0.1,0,0.2,0,0.3,0.1
			c0.1,0.1,0.1,0.2,0.1,0.3v0.7c0,0.1,0,0.2,0.1,0.3C24.9,15,25,15,25.1,15h0.7c0.1,0,0.2,0,0.3,0.1c0.1,0.1,0.1,0.2,0.1,0.3v5.1
			c0,0.1,0,0.2-0.1,0.3c-0.1,0.1-0.2,0.1-0.3,0.1h-0.7c-0.1,0-0.2,0-0.3-0.1c-0.1-0.1-0.1-0.2-0.1-0.3v-5.1c0-0.1,0-0.2-0.1-0.3
			C24.5,15,24.4,15,24.3,15H22c-0.1,0-0.2,0-0.3,0.1c-0.1,0.1-0.1,0.2-0.1,0.3v5.1c0,0.1,0,0.2-0.1,0.3c-0.1,0.1-0.2,0.1-0.3,0.1
			h-0.7C20.3,20.8,20.2,20.8,20.2,20.7z"/>
		<path class="st3" d="M30,20.7c-0.1-0.1-0.1-0.2-0.1-0.3v-0.7c0-0.1,0-0.2-0.1-0.3c-0.1-0.1-0.2-0.1-0.3-0.1h-0.7
			c-0.1,0-0.2,0-0.3-0.1c-0.1-0.1-0.1-0.2-0.1-0.3v-3.6c0-0.1,0-0.2,0.1-0.3c0.1-0.1,0.2-0.1,0.3-0.1h0.7c0.1,0,0.2,0,0.3-0.1
			c0.1-0.1,0.1-0.2,0.1-0.3v-0.7c0-0.1,0-0.2,0.1-0.3c0.1-0.1,0.2-0.1,0.3-0.1h2.3c0.1,0,0.2,0,0.3,0.1c0.1,0.1,0.1,0.2,0.1,0.3v0.7
			c0,0.1,0,0.2,0.1,0.3c0.1,0.1,0.2,0.1,0.3,0.1h0.7c0.1,0,0.2,0,0.3,0.1c0.1,0.1,0.1,0.2,0.1,0.3v2.2c0,0.1,0,0.2-0.1,0.3
			c-0.1,0.1-0.2,0.1-0.3,0.1h-3.8c-0.1,0-0.2,0-0.3,0.1s-0.1,0.2-0.1,0.3V19c0,0.1,0,0.2,0.1,0.3s0.2,0.1,0.3,0.1h2.3
			c0.1,0,0.2,0,0.3,0.1c0.1,0.1,0.1,0.2,0.1,0.3v0.7c0,0.1,0,0.2-0.1,0.3c-0.1,0.1-0.2,0.1-0.3,0.1h-2.3
			C30.2,20.8,30.1,20.8,30,20.7z M32.6,16.5c0.1,0,0.2,0,0.3-0.1c0.1-0.1,0.1-0.2,0.1-0.3v-0.7c0-0.1,0-0.2-0.1-0.3
			C32.8,15,32.7,15,32.6,15h-2.3c-0.1,0-0.2,0-0.3,0.1c-0.1,0.1-0.1,0.2-0.1,0.3v0.7c0,0.1,0,0.2,0.1,0.3c0.1,0.1,0.2,0.1,0.3,0.1
			H32.6z"/>
	</g>
	<g class="st1">
		<path class="st3" d="M16.8,37.1c-0.1-0.1-0.2-0.3-0.2-0.4v-1.1c0-0.2,0.1-0.3,0.2-0.4c0.1-0.1,0.3-0.2,0.5-0.2H21
			c0.2,0,0.3-0.1,0.5-0.2s0.2-0.3,0.2-0.4v-1.1c0-0.2-0.1-0.3-0.2-0.4s-0.3-0.2-0.5-0.2h-1.2c-0.2,0-0.3-0.1-0.5-0.2
			c-0.1-0.1-0.2-0.3-0.2-0.4v-1.2c0-0.2-0.1-0.3-0.2-0.4c-0.1-0.1-0.3-0.2-0.5-0.2h-1.2c-0.2,0-0.3-0.1-0.5-0.2
			c-0.1-0.1-0.2-0.3-0.2-0.4v-1.2c0-0.2,0.1-0.3,0.2-0.4s0.3-0.2,0.5-0.2h1.2c0.2,0,0.3-0.1,0.5-0.2c0.1-0.1,0.2-0.3,0.2-0.4v-1.2
			c0-0.2,0.1-0.3,0.2-0.4c0.1-0.1,0.3-0.2,0.5-0.2h3.8c0.2,0,0.3,0.1,0.4,0.2c0.1,0.1,0.2,0.3,0.2,0.4v1.2c0,0.2-0.1,0.3-0.2,0.4
			s-0.3,0.2-0.4,0.2h-3.8c-0.2,0-0.3,0.1-0.5,0.2c-0.1,0.1-0.2,0.3-0.2,0.4v1.2c0,0.2,0.1,0.3,0.2,0.4c0.1,0.1,0.3,0.2,0.5,0.2H21
			c0.2,0,0.3,0.1,0.5,0.2s0.2,0.3,0.2,0.4v1.2c0,0.2,0.1,0.3,0.2,0.4c0.1,0.1,0.3,0.2,0.5,0.2h1.2c0.2,0,0.3,0.1,0.4,0.2
			s0.2,0.3,0.2,0.4v1.1c0,0.2-0.1,0.3-0.2,0.4s-0.3,0.2-0.4,0.2h-1.2c-0.2,0-0.3,0.1-0.5,0.2c-0.1,0.1-0.2,0.3-0.2,0.4v1.1
			c0,0.2-0.1,0.3-0.2,0.4c-0.1,0.1-0.3,0.2-0.5,0.2h-3.7C17.1,37.3,16.9,37.3,16.8,37.1z"/>
		<path class="st3" d="M31.9,37.1c-0.1-0.1-0.2-0.3-0.2-0.4v-1.1c0-0.2-0.1-0.3-0.2-0.4c-0.1-0.1-0.3-0.2-0.5-0.2h-1.2
			c-0.2,0-0.3-0.1-0.5-0.2s-0.2-0.3-0.2-0.4v-6c0-0.2,0.1-0.3,0.2-0.4c0.1-0.1,0.3-0.2,0.5-0.2h1.2c0.2,0,0.3-0.1,0.5-0.2
			c0.1-0.1,0.2-0.3,0.2-0.4v-1.2c0-0.2,0.1-0.3,0.2-0.4c0.1-0.1,0.3-0.2,0.5-0.2h3.8c0.2,0,0.3,0.1,0.4,0.2c0.1,0.1,0.2,0.3,0.2,0.4
			v1.2c0,0.2,0.1,0.3,0.2,0.4c0.1,0.1,0.3,0.2,0.5,0.2h1.2c0.2,0,0.3,0.1,0.5,0.2c0.1,0.1,0.2,0.3,0.2,0.4v6c0,0.2-0.1,0.3-0.2,0.4
			c-0.1,0.1-0.3,0.2-0.5,0.2h-1.2c-0.2,0-0.3,0.1-0.5,0.2c-0.1,0.1-0.2,0.3-0.2,0.4v1.1c0,0.2-0.1,0.3-0.2,0.4
			c-0.1,0.1-0.3,0.2-0.4,0.2h-3.8C32.2,37.3,32.1,37.3,31.9,37.1z M36.2,34.9c0.2,0,0.3-0.1,0.4-0.2c0.1-0.1,0.2-0.3,0.2-0.4v-6
			c0-0.2-0.1-0.3-0.2-0.4c-0.1-0.1-0.3-0.2-0.4-0.2h-3.8c-0.2,0-0.3,0.1-0.5,0.2c-0.1,0.1-0.2,0.3-0.2,0.4v6c0,0.2,0.1,0.3,0.2,0.4
			s0.3,0.2,0.5,0.2H36.2z"/>
		<path class="st3" d="M47.1,37.1c-0.1-0.1-0.2-0.3-0.2-0.4v-1.1c0-0.2-0.1-0.3-0.2-0.4c-0.1-0.1-0.3-0.2-0.5-0.2H45
			c-0.2,0-0.3-0.1-0.5-0.2s-0.2-0.3-0.2-0.4v-8.4c0-0.2,0.1-0.3,0.2-0.4s0.3-0.2,0.5-0.2h1.2c0.2,0,0.3,0.1,0.5,0.2
			c0.1,0.1,0.2,0.3,0.2,0.4v8.4c0,0.2,0.1,0.3,0.2,0.4s0.3,0.2,0.5,0.2h3.8c0.2,0,0.3-0.1,0.4-0.2c0.1-0.1,0.2-0.3,0.2-0.4v-8.4
			c0-0.2,0.1-0.3,0.2-0.4c0.1-0.1,0.3-0.2,0.5-0.2h1.2c0.2,0,0.3,0.1,0.5,0.2c0.1,0.1,0.2,0.3,0.2,0.4v10.8c0,0.2-0.1,0.3-0.2,0.4
			c-0.1,0.1-0.3,0.2-0.5,0.2h-6.3C47.4,37.3,47.2,37.3,47.1,37.1z"/>
		<path class="st3" d="M59.7,37.1c-0.1-0.1-0.2-0.3-0.2-0.4V25.9c0-0.2,0.1-0.3,0.2-0.4s0.3-0.2,0.5-0.2h6.3c0.2,0,0.3,0.1,0.4,0.2
			c0.1,0.1,0.2,0.3,0.2,0.4v1.2c0,0.2-0.1,0.3-0.2,0.4s-0.3,0.2-0.4,0.2h-3.8c-0.2,0-0.3,0.1-0.5,0.2c-0.1,0.1-0.2,0.3-0.2,0.4v8.4
			c0,0.2-0.1,0.3-0.2,0.4c-0.1,0.1-0.3,0.2-0.5,0.2h-1.2C60,37.3,59.9,37.3,59.7,37.1z"/>
		<path class="st3" d="M72.4,37.1c-0.1-0.1-0.2-0.3-0.2-0.4v-1.1c0-0.2-0.1-0.3-0.2-0.4c-0.1-0.1-0.3-0.2-0.5-0.2h-1.2
			c-0.2,0-0.3-0.1-0.5-0.2s-0.2-0.3-0.2-0.4v-6c0-0.2,0.1-0.3,0.2-0.4c0.1-0.1,0.3-0.2,0.5-0.2h1.2c0.2,0,0.3-0.1,0.5-0.2
			c0.1-0.1,0.2-0.3,0.2-0.4v-1.2c0-0.2,0.1-0.3,0.2-0.4c0.1-0.1,0.3-0.2,0.5-0.2h3.8c0.2,0,0.3,0.1,0.4,0.2c0.1,0.1,0.2,0.3,0.2,0.4
			v1.2c0,0.2-0.1,0.3-0.2,0.4s-0.3,0.2-0.4,0.2h-3.8c-0.2,0-0.3,0.1-0.5,0.2c-0.1,0.1-0.2,0.3-0.2,0.4v6c0,0.2,0.1,0.3,0.2,0.4
			s0.3,0.2,0.5,0.2h3.8c0.2,0,0.3,0.1,0.4,0.2c0.1,0.1,0.2,0.3,0.2,0.4v1.1c0,0.2-0.1,0.3-0.2,0.4c-0.1,0.1-0.3,0.2-0.4,0.2h-3.8
			C72.7,37.3,72.5,37.3,72.4,37.1z"/>
		<path class="st3" d="M85,37.1c-0.1-0.1-0.2-0.3-0.2-0.4v-1.1c0-0.2-0.1-0.3-0.2-0.4c-0.1-0.1-0.3-0.2-0.5-0.2h-1.2
			c-0.2,0-0.3-0.1-0.5-0.2s-0.2-0.3-0.2-0.4v-6c0-0.2,0.1-0.3,0.2-0.4c0.1-0.1,0.3-0.2,0.5-0.2h1.2c0.2,0,0.3-0.1,0.5-0.2
			c0.1-0.1,0.2-0.3,0.2-0.4v-1.2c0-0.2,0.1-0.3,0.2-0.4c0.1-0.1,0.3-0.2,0.5-0.2h3.8c0.2,0,0.3,0.1,0.4,0.2c0.1,0.1,0.2,0.3,0.2,0.4
			v1.2c0,0.2,0.1,0.3,0.2,0.4s0.3,0.2,0.5,0.2h1.2c0.2,0,0.3,0.1,0.5,0.2s0.2,0.3,0.2,0.4v3.6c0,0.2-0.1,0.3-0.2,0.4
			c-0.1,0.1-0.3,0.2-0.5,0.2h-6.3c-0.2,0-0.3,0.1-0.5,0.2c-0.1,0.1-0.2,0.3-0.2,0.4v1.1c0,0.2,0.1,0.3,0.2,0.4
			c0.1,0.1,0.3,0.2,0.5,0.2h3.8c0.2,0,0.3,0.1,0.4,0.2c0.1,0.1,0.2,0.3,0.2,0.4v1.1c0,0.2-0.1,0.3-0.2,0.4c-0.1,0.1-0.3,0.2-0.4,0.2
			h-3.8C85.3,37.3,85.1,37.3,85,37.1z M89.2,30.1c0.2,0,0.3-0.1,0.4-0.2c0.1-0.1,0.2-0.3,0.2-0.4v-1.2c0-0.2-0.1-0.3-0.2-0.4
			c-0.1-0.1-0.3-0.2-0.4-0.2h-3.8c-0.2,0-0.3,0.1-0.5,0.2c-0.1,0.1-0.2,0.3-0.2,0.4v1.2c0,0.2,0.1,0.3,0.2,0.4
			c0.1,0.1,0.3,0.2,0.5,0.2H89.2z"/>
	</g>
	<g class="st1">
		<path class="st4" d="M42.3,20.6c-0.1-0.1-0.2-0.3-0.2-0.4v-1.1c0-0.2-0.1-0.3-0.2-0.4c-0.1-0.1-0.3-0.2-0.5-0.2h-1.2
			c-0.2,0-0.3-0.1-0.5-0.2c-0.1-0.1-0.2-0.3-0.2-0.4V9.6c0-0.2,0.1-0.3,0.2-0.4C39.9,9.1,40,9,40.2,9h1.2c0.2,0,0.3-0.1,0.5-0.2
			c0.1-0.1,0.2-0.3,0.2-0.4V7.3c0-0.2,0.1-0.3,0.2-0.4c0.1-0.1,0.3-0.2,0.5-0.2h6.3c0.2,0,0.3,0.1,0.5,0.2c0.1,0.1,0.2,0.3,0.2,0.4
			v3.5c0,0.2-0.1,0.3-0.2,0.4c-0.1,0.1-0.3,0.2-0.5,0.2h-1.2c-0.2,0-0.3-0.1-0.5-0.2c-0.1-0.1-0.2-0.3-0.2-0.4V9.6
			c0-0.2-0.1-0.3-0.2-0.4C46.9,9.1,46.7,9,46.5,9h-3.8c-0.2,0-0.3,0.1-0.5,0.2c-0.1,0.1-0.2,0.3-0.2,0.4v8.2c0,0.2,0.1,0.3,0.2,0.4
			c0.1,0.1,0.3,0.2,0.5,0.2h3.8c0.2,0,0.3-0.1,0.4-0.2c0.1-0.1,0.2-0.3,0.2-0.4v-1.1c0-0.2,0.1-0.3,0.2-0.4c0.1-0.1,0.3-0.2,0.5-0.2
			h1.2c0.2,0,0.3,0.1,0.5,0.2c0.1,0.1,0.2,0.3,0.2,0.4v1.1c0,0.2-0.1,0.3-0.2,0.4c-0.1,0.1-0.3,0.2-0.5,0.2h-1.2
			c-0.2,0-0.3,0.1-0.5,0.2c-0.1,0.1-0.2,0.3-0.2,0.4v1.1c0,0.2-0.1,0.3-0.2,0.4c-0.1,0.1-0.3,0.2-0.4,0.2h-3.8
			C42.6,20.8,42.4,20.8,42.3,20.6z"/>
		<path class="st4" d="M57.6,20.6c-0.1-0.1-0.2-0.3-0.2-0.4v-1.1c0-0.2-0.1-0.3-0.2-0.4c-0.1-0.1-0.3-0.2-0.5-0.2h-1.2
			c-0.2,0-0.3-0.1-0.5-0.2c-0.1-0.1-0.2-0.3-0.2-0.4V9.6c0-0.2,0.1-0.3,0.2-0.4C55.1,9.1,55.3,9,55.5,9h1.2C56.9,9,57,9,57.2,8.9
			c0.1-0.1,0.2-0.3,0.2-0.4V7.3c0-0.2,0.1-0.3,0.2-0.4c0.1-0.1,0.3-0.2,0.5-0.2h3.8c0.2,0,0.3,0.1,0.4,0.2c0.1,0.1,0.2,0.3,0.2,0.4
			v1.1c0,0.2,0.1,0.3,0.2,0.4C62.8,9,62.9,9,63.1,9h1.2c0.2,0,0.3,0.1,0.5,0.2C64.9,9.4,65,9.5,65,9.6v8.2c0,0.2-0.1,0.3-0.2,0.4
			c-0.1,0.1-0.3,0.2-0.5,0.2h-1.2c-0.2,0-0.3,0.1-0.5,0.2s-0.2,0.3-0.2,0.4v1.1c0,0.2-0.1,0.3-0.2,0.4c-0.1,0.1-0.3,0.2-0.4,0.2H58
			C57.8,20.8,57.7,20.8,57.6,20.6z M61.8,18.5c0.2,0,0.3-0.1,0.4-0.2c0.1-0.1,0.2-0.3,0.2-0.4V9.6c0-0.2-0.1-0.3-0.2-0.4
			C62.1,9.1,62,9,61.8,9H58c-0.2,0-0.3,0.1-0.5,0.2c-0.1,0.1-0.2,0.3-0.2,0.4v8.2c0,0.2,0.1,0.3,0.2,0.4c0.1,0.1,0.3,0.2,0.5,0.2
			H61.8z"/>
		<path class="st4" d="M70.3,20.6c-0.1-0.1-0.2-0.3-0.2-0.4V7.3c0-0.2,0.1-0.3,0.2-0.4c0.1-0.1,0.3-0.2,0.5-0.2h6.3
			c0.2,0,0.3,0.1,0.4,0.2c0.1,0.1,0.2,0.3,0.2,0.4v1.1c0,0.2,0.1,0.3,0.2,0.4C78.1,9,78.2,9,78.4,9h1.2c0.2,0,0.3,0.1,0.5,0.2
			c0.1,0.1,0.2,0.3,0.2,0.4v8.2c0,0.2-0.1,0.3-0.2,0.4c-0.1,0.1-0.3,0.2-0.5,0.2h-1.2c-0.2,0-0.3,0.1-0.5,0.2
			c-0.1,0.1-0.2,0.3-0.2,0.4v1.1c0,0.2-0.1,0.3-0.2,0.4c-0.1,0.1-0.3,0.2-0.4,0.2h-6.3C70.6,20.8,70.4,20.8,70.3,20.6z M77.1,18.5
			c0.2,0,0.3-0.1,0.4-0.2c0.1-0.1,0.2-0.3,0.2-0.4V9.6c0-0.2-0.1-0.3-0.2-0.4C77.4,9.1,77.2,9,77.1,9h-3.8c-0.2,0-0.3,0.1-0.5,0.2
			c-0.1,0.1-0.2,0.3-0.2,0.4v8.2c0,0.2,0.1,0.3,0.2,0.4c0.1,0.1,0.3,0.2,0.5,0.2H77.1z"/>
		<path class="st4" d="M85.5,20.6c-0.1-0.1-0.2-0.3-0.2-0.4V7.3c0-0.2,0.1-0.3,0.2-0.4c0.1-0.1,0.3-0.2,0.5-0.2h6.3
			c0.2,0,0.3,0.1,0.4,0.2C92.9,7,93,7.1,93,7.3v1.1c0,0.2-0.1,0.3-0.2,0.4C92.6,9,92.5,9,92.3,9h-3.8c-0.2,0-0.3,0.1-0.5,0.2
			c-0.1,0.1-0.2,0.3-0.2,0.4v1.1c0,0.2,0.1,0.3,0.2,0.4c0.1,0.1,0.3,0.2,0.5,0.2h3.8c0.2,0,0.3,0.1,0.4,0.2c0.1,0.1,0.2,0.3,0.2,0.4
			v1.1c0,0.2-0.1,0.3-0.2,0.4c-0.1,0.1-0.3,0.2-0.4,0.2h-3.8c-0.2,0-0.3,0.1-0.5,0.2c-0.1,0.1-0.2,0.3-0.2,0.4v3.5
			c0,0.2,0.1,0.3,0.2,0.4c0.1,0.1,0.3,0.2,0.5,0.2h3.8c0.2,0,0.3,0.1,0.4,0.2c0.1,0.1,0.2,0.3,0.2,0.4v1.1c0,0.2-0.1,0.3-0.2,0.4
			c-0.1,0.1-0.3,0.2-0.4,0.2H86C85.8,20.8,85.7,20.8,85.5,20.6z"/>
	</g>
	<g class="st1">
		<path class="st4" d="M8.5,40.8c-0.1-0.2-0.2-0.5-0.2-0.8v-2c0-0.3-0.1-0.6-0.2-0.8C8,37,7.8,36.9,7.6,36.9H6.4
			c-0.2,0-0.3-0.1-0.5-0.3s-0.2-0.5-0.2-0.8V25.2c0-0.3-0.1-0.6-0.2-0.8c-0.1-0.2-0.3-0.3-0.5-0.3H3.8c-0.2,0-0.3-0.1-0.5-0.3
			c-0.1-0.2-0.2-0.5-0.2-0.8v-2c0-0.3,0.1-0.6,0.2-0.8c0.1-0.2,0.3-0.3,0.5-0.3h1.2c0.2,0,0.3-0.1,0.5-0.3c0.1-0.2,0.2-0.5,0.2-0.8
			V8.1c0-0.3,0.1-0.5,0.2-0.8C6.1,7.1,6.2,7,6.4,7h1.2C7.8,7,8,6.9,8.1,6.7c0.1-0.2,0.2-0.5,0.2-0.8v-2c0-0.3,0.1-0.5,0.2-0.8
			C8.6,2.9,8.8,2.8,9,2.8h1.2c0.2,0,0.3,0.1,0.4,0.3c0.1,0.2,0.2,0.5,0.2,0.8v2c0,0.3-0.1,0.6-0.2,0.8C10.5,6.9,10.4,7,10.2,7H9
			C8.8,7,8.6,7.1,8.5,7.4C8.4,7.6,8.3,7.8,8.3,8.1v10.6c0,0.3-0.1,0.5-0.2,0.8c-0.1,0.2-0.3,0.3-0.5,0.3H6.4c-0.2,0-0.3,0.1-0.5,0.3
			s-0.2,0.5-0.2,0.8v2c0,0.3,0.1,0.5,0.2,0.8c0.1,0.2,0.3,0.3,0.5,0.3h1.2c0.2,0,0.3,0.1,0.5,0.3c0.1,0.2,0.2,0.5,0.2,0.8v10.6
			c0,0.3,0.1,0.6,0.2,0.8s0.3,0.3,0.5,0.3h1.2c0.2,0,0.3,0.1,0.4,0.3c0.1,0.2,0.2,0.5,0.2,0.8v2c0,0.3-0.1,0.6-0.2,0.8
			c-0.1,0.2-0.3,0.3-0.4,0.3H9C8.8,41.1,8.6,41,8.5,40.8z"/>
	</g>
	<g class="st1">
		<path class="st4" d="M98.8,40.8c-0.1-0.2-0.2-0.5-0.2-0.8v-2c0-0.3,0.1-0.6,0.2-0.8c0.1-0.2,0.3-0.3,0.5-0.3h1.2
			c0.2,0,0.3-0.1,0.5-0.3s0.2-0.5,0.2-0.8V25.2c0-0.3,0.1-0.6,0.2-0.8c0.1-0.2,0.3-0.3,0.5-0.3h1.2c0.2,0,0.3-0.1,0.5-0.3
			c0.1-0.2,0.2-0.5,0.2-0.8v-2c0-0.3-0.1-0.6-0.2-0.8c-0.1-0.2-0.3-0.3-0.5-0.3h-1.2c-0.2,0-0.3-0.1-0.5-0.3
			c-0.1-0.2-0.2-0.5-0.2-0.8V8.1c0-0.3-0.1-0.5-0.2-0.8c-0.1-0.2-0.3-0.3-0.5-0.3h-1.2c-0.2,0-0.3-0.1-0.5-0.3
			c-0.1-0.2-0.2-0.5-0.2-0.8v-2c0-0.3,0.1-0.5,0.2-0.8c0.1-0.2,0.3-0.3,0.5-0.3h1.2c0.2,0,0.3,0.1,0.5,0.3c0.1,0.2,0.2,0.5,0.2,0.8
			v2c0,0.3,0.1,0.6,0.2,0.8c0.1,0.2,0.3,0.3,0.5,0.3h1.2c0.2,0,0.3,0.1,0.5,0.3c0.1,0.2,0.2,0.5,0.2,0.8v10.6c0,0.3,0.1,0.5,0.2,0.8
			s0.3,0.3,0.5,0.3h1.2c0.2,0,0.3,0.1,0.4,0.3c0.1,0.2,0.2,0.5,0.2,0.8v2c0,0.3-0.1,0.5-0.2,0.8c-0.1,0.2-0.3,0.3-0.4,0.3h-1.2
			c-0.2,0-0.3,0.1-0.5,0.3c-0.1,0.2-0.2,0.5-0.2,0.8v10.6c0,0.3-0.1,0.6-0.2,0.8c-0.1,0.2-0.3,0.3-0.5,0.3h-1.2
			c-0.2,0-0.3,0.1-0.5,0.3c-0.1,0.2-0.2,0.5-0.2,0.8v2c0,0.3-0.1,0.6-0.2,0.8c-0.1,0.2-0.3,0.3-0.5,0.3h-1.2
			C99.1,41.1,98.9,41,98.8,40.8z"/>
	</g>
	<g class="st1">
		<path class="st4" d="M112.5,40.8c-0.1-0.2-0.2-0.5-0.2-0.8v-2c0-0.3,0.1-0.6,0.2-0.8c0.1-0.2,0.3-0.3,0.5-0.3h1.2
			c0.2,0,0.3-0.1,0.5-0.3s0.2-0.5,0.2-0.8v-2c0-0.3-0.1-0.6-0.2-0.8c-0.1-0.2-0.3-0.3-0.5-0.3h-1.2c-0.2,0-0.3-0.1-0.5-0.3
			c-0.1-0.2-0.2-0.5-0.2-0.8v-2c0-0.3,0.1-0.6,0.2-0.8s0.3-0.3,0.5-0.3h3.8c0.2,0,0.3,0.1,0.5,0.3s0.2,0.5,0.2,0.8v6.3
			c0,0.3-0.1,0.6-0.2,0.8s-0.3,0.3-0.5,0.3h-1.2c-0.2,0-0.3,0.1-0.5,0.3c-0.1,0.2-0.2,0.5-0.2,0.8v2c0,0.3-0.1,0.6-0.2,0.8
			c-0.1,0.2-0.3,0.3-0.5,0.3h-1.2C112.8,41.1,112.6,41,112.5,40.8z M115,19.5c-0.1-0.2-0.2-0.5-0.2-0.8v-2.1c0-0.3,0.1-0.5,0.2-0.7
			c0.1-0.2,0.3-0.3,0.5-0.3h1.2c0.2,0,0.3,0.1,0.5,0.3c0.1,0.2,0.2,0.5,0.2,0.7v2.1c0,0.3-0.1,0.5-0.2,0.8s-0.3,0.3-0.5,0.3h-1.2
			C115.3,19.8,115.2,19.7,115,19.5z"/>
	</g>
</g>
</svg>
