<?xml version="1.0" encoding="utf-8"?>
<!-- Generator: Adobe Illustrator 24.3.0, SVG Export Plug-In . SVG Version: 6.00 Build 0)  -->
<svg version="1.1" id="Layer_1" xmlns="http://www.w3.org/2000/svg" xmlns:xlink="http://www.w3.org/1999/xlink" x="0px" y="0px"
	 viewBox="0 0 470 470" style="enable-background:new 0 0 470 470;" xml:space="preserve">
<style type="text/css">
	.st0{display:none;fill:#A8E788;}
	.st1{display:none;opacity:0.6;}
	.st2{display:inline;}
	.st3{display:none;}
	.st4{fill:#39B54A;}
	.st5{display:inline;fill:#39B54A;}
	.st6{fill:#39844A;}
	.st7{display:inline;fill:#FBFBFB;}
	.st8{display:inline;fill:#FE6060;}
</style>
<circle class="st0" cx="213.5" cy="236.1" r="212.2"/>
<g class="st1">
	<path class="st2" d="M116.8,301.3c-0.8-1.1-1.2-2.5-1.2-4.1v-99.9c0-1.5-0.4-2.8-1.2-4c-0.8-1.2-1.7-1.8-2.8-1.8H89.4
		c-1.1,0-2-0.6-2.8-1.7c-0.8-1.1-1.2-2.4-1.2-3.9V175c0-1.5,0.4-2.8,1.2-4c0.8-1.2,1.7-1.8,2.8-1.8h67.5c1,0,1.9,0.6,2.7,1.8
		c0.8,1.2,1.2,2.5,1.2,4v10.8c0,1.5-0.4,2.8-1.2,3.9c-0.8,1.1-1.7,1.7-2.7,1.7h-22.4c-1,0-1.9,0.6-2.7,1.8c-0.8,1.2-1.2,2.5-1.2,4
		v99.9c0,1.6-0.4,3-1.2,4.1c-0.8,1.1-1.7,1.7-2.8,1.7h-7.2C118.5,303,117.6,302.4,116.8,301.3z"/>
	<path class="st2" d="M192.1,301.3c-0.8-1.1-1.2-2.5-1.2-4.1v-10.6c0-1.6-0.4-3-1.2-4.1c-0.8-1.1-1.7-1.7-2.8-1.7h-7.2
		c-1.1,0-2-0.6-2.8-1.7c-0.8-1.1-1.2-2.5-1.2-4.1v-77.7c0-1.5,0.4-2.8,1.2-4c0.8-1.2,1.7-1.8,2.8-1.8h7.2c1.1,0,2-0.6,2.8-1.7
		c0.8-1.1,1.2-2.4,1.2-3.9V175c0-1.5,0.4-2.8,1.2-4c0.8-1.2,1.7-1.8,2.7-1.8h52.5c1,0,1.9,0.6,2.7,1.8c0.8,1.2,1.2,2.5,1.2,4v33.1
		c0,1.5-0.4,2.8-1.2,4c-0.8,1.2-1.7,1.8-2.7,1.8H240c-1,0-1.9-0.6-2.6-1.8c-0.8-1.2-1.2-2.5-1.2-4v-10.8c0-1.5-0.4-2.8-1.2-4
		c-0.8-1.2-1.7-1.8-2.7-1.8h-37.4c-1,0-1.9,0.6-2.7,1.8c-0.8,1.2-1.2,2.5-1.2,4v77.7c0,1.6,0.4,3,1.2,4.1c0.8,1.1,1.7,1.7,2.7,1.7
		h37.4c1,0,1.9-0.6,2.7-1.7c0.8-1.1,1.2-2.5,1.2-4.1v-10.6c0-1.6,0.4-3,1.2-4.1c0.8-1.1,1.6-1.7,2.6-1.7h7.3c1,0,1.9,0.6,2.7,1.7
		c0.8,1.1,1.2,2.5,1.2,4.1v10.6c0,1.6-0.4,3-1.2,4.1c-0.8,1.1-1.7,1.7-2.7,1.7H240c-1,0-1.9,0.6-2.6,1.7c-0.8,1.1-1.2,2.5-1.2,4.1
		v10.6c0,1.6-0.4,3-1.2,4.1c-0.8,1.1-1.7,1.7-2.7,1.7h-37.4C193.8,303,192.9,302.4,192.1,301.3z"/>
	<path class="st2" d="M282.5,301.3c-0.8-1.1-1.2-2.5-1.2-4.1v-10.6c0-1.6,0.4-3,1.2-4.1c0.8-1.1,1.7-1.7,2.8-1.7h37.4
		c1,0,1.9-0.6,2.6-1.7c0.8-1.1,1.2-2.5,1.2-4.1v-10.6c0-1.6-0.4-3-1.2-4.1c-0.8-1.1-1.6-1.7-2.6-1.7h-7.3c-1,0-1.9-0.6-2.7-1.8
		s-1.2-2.5-1.2-4V242c0-1.6-0.4-3-1.2-4.1c-0.8-1.1-1.7-1.7-2.8-1.7h-7.2c-1,0-1.9-0.6-2.7-1.8c-0.8-1.2-1.2-2.6-1.2-4.1v-10.9
		c0-1.5-0.4-2.8-1.2-3.9c-0.8-1.1-1.7-1.7-2.8-1.7h-7.2c-1.1,0-2-0.6-2.8-1.8c-0.8-1.2-1.2-2.5-1.2-4v-10.7c0-1.5,0.4-2.8,1.2-4
		c0.8-1.2,1.7-1.8,2.8-1.8h7.2c1.1,0,2-0.6,2.8-1.7c0.8-1.1,1.2-2.4,1.2-3.9V175c0-1.5,0.4-2.8,1.2-4c0.8-1.2,1.7-1.8,2.7-1.8h37.3
		c1,0,1.9,0.6,2.7,1.8c0.8,1.2,1.2,2.5,1.2,4v10.8c0,1.5-0.4,2.8-1.2,3.9c-0.8,1.1-1.7,1.7-2.7,1.7h-37.3c-1,0-1.9,0.6-2.7,1.8
		c-0.8,1.2-1.2,2.5-1.2,4v10.7c0,1.5,0.4,2.8,1.2,4c0.8,1.2,1.7,1.8,2.7,1.8h7.2c1.1,0,2,0.6,2.8,1.7c0.8,1.1,1.2,2.5,1.2,3.9v10.9
		c0,1.5,0.4,2.8,1.2,4.1c0.8,1.2,1.7,1.8,2.7,1.8h7.3c1,0,1.9,0.6,2.6,1.7c0.8,1.1,1.2,2.5,1.2,4.1v10.6c0,1.5,0.4,2.8,1.2,4
		c0.8,1.2,1.7,1.8,2.7,1.8h7.3c1,0,1.9,0.6,2.7,1.7c0.8,1.1,1.2,2.5,1.2,4.1v10.6c0,1.6-0.4,3-1.2,4.1c-0.8,1.1-1.7,1.7-2.7,1.7
		h-7.3c-1,0-1.9,0.6-2.7,1.7c-0.8,1.1-1.2,2.5-1.2,4.1v10.6c0,1.6-0.4,3-1.2,4.1c-0.8,1.1-1.6,1.7-2.6,1.7h-37.4
		C284.2,303,283.2,302.4,282.5,301.3z"/>
</g>
<g class="st3">
	<g class="st2">
		<path class="st4" d="M53.4,342c-1.1-1.2-1.7-2.7-1.7-4.4v-11.4c0-1.7-0.5-3.2-1.6-4.4c-1.1-1.2-2.4-1.8-3.9-1.8h-10
			c-1.4,0-2.6-0.6-3.8-1.8c-1.1-1.2-1.7-2.7-1.7-4.4v-59.3c0-1.7-0.5-3.2-1.6-4.4c-1.1-1.2-2.4-1.8-3.9-1.8h-10
			c-1.5,0-2.8-0.6-3.9-1.9c-1.1-1.3-1.6-2.7-1.6-4.3v-11.4c0-1.7,0.5-3.2,1.6-4.4c1.1-1.2,2.4-1.8,3.9-1.8h10c1.5,0,2.8-0.6,3.9-1.9
			c1.1-1.3,1.6-2.7,1.6-4.3v-59.5c0-1.6,0.6-3,1.7-4.3c1.1-1.3,2.4-1.9,3.8-1.9h10c1.5,0,2.8-0.6,3.9-1.8c1.1-1.2,1.6-2.7,1.6-4.4
			v-11.4c0-1.6,0.6-3,1.7-4.3s2.4-1.9,3.8-1.9h10.2c1.4,0,2.6,0.6,3.7,1.9c1.1,1.3,1.6,2.7,1.6,4.3V146c0,1.7-0.5,3.2-1.6,4.4
			c-1.1,1.2-2.3,1.8-3.7,1.8H57.1c-1.4,0-2.6,0.6-3.8,1.9s-1.7,2.7-1.7,4.3V218c0,1.6-0.5,3-1.6,4.3c-1.1,1.3-2.4,1.9-3.9,1.9h-10
			c-1.4,0-2.6,0.6-3.8,1.8c-1.1,1.2-1.7,2.7-1.7,4.4v11.4c0,1.6,0.6,3,1.7,4.3c1.1,1.3,2.4,1.9,3.8,1.9h10c1.5,0,2.8,0.6,3.9,1.8
			c1.1,1.2,1.6,2.7,1.6,4.4v59.3c0,1.7,0.6,3.2,1.7,4.4c1.1,1.2,2.4,1.8,3.8,1.8h10.2c1.4,0,2.6,0.6,3.7,1.8
			c1.1,1.2,1.6,2.7,1.6,4.4v11.4c0,1.7-0.5,3.2-1.6,4.4c-1.1,1.2-2.3,1.8-3.7,1.8H57.1C55.7,343.8,54.5,343.2,53.4,342z"/>
	</g>
	<g class="st2">
		<path class="st4" d="M356,342c-1.1-1.2-1.6-2.7-1.6-4.4v-11.4c0-1.7,0.5-3.2,1.6-4.4c1.1-1.2,2.4-1.8,3.9-1.8h10
			c1.5,0,2.8-0.6,3.9-1.8c1.1-1.2,1.6-2.7,1.6-4.4v-59.3c0-1.7,0.6-3.2,1.7-4.4c1.1-1.2,2.4-1.8,3.8-1.8h10c1.5,0,2.8-0.6,3.9-1.9
			c1.1-1.3,1.6-2.7,1.6-4.3v-11.4c0-1.7-0.5-3.2-1.6-4.4c-1.1-1.2-2.4-1.8-3.9-1.8h-10c-1.4,0-2.6-0.6-3.8-1.9
			c-1.1-1.3-1.7-2.7-1.7-4.3v-59.5c0-1.6-0.5-3-1.6-4.3c-1.1-1.3-2.4-1.9-3.9-1.9h-10c-1.5,0-2.8-0.6-3.9-1.8
			c-1.1-1.2-1.6-2.7-1.6-4.4v-11.4c0-1.6,0.5-3,1.6-4.3c1.1-1.3,2.4-1.9,3.9-1.9h10c1.5,0,2.8,0.6,3.9,1.9c1.1,1.3,1.6,2.7,1.6,4.3
			V146c0,1.7,0.6,3.2,1.7,4.4c1.1,1.2,2.4,1.8,3.8,1.8h10c1.5,0,2.8,0.6,3.9,1.9c1.1,1.3,1.6,2.7,1.6,4.3V218c0,1.6,0.6,3,1.7,4.3
			s2.4,1.9,3.8,1.9h10.2c1.4,0,2.6,0.6,3.7,1.8c1.1,1.2,1.6,2.7,1.6,4.4v11.4c0,1.6-0.5,3-1.6,4.3c-1.1,1.3-2.3,1.9-3.7,1.9h-10.2
			c-1.4,0-2.6,0.6-3.8,1.8c-1.1,1.2-1.7,2.7-1.7,4.4v59.3c0,1.7-0.5,3.2-1.6,4.4c-1.1,1.2-2.4,1.8-3.9,1.8h-10
			c-1.4,0-2.6,0.6-3.8,1.8c-1.1,1.2-1.7,2.7-1.7,4.4v11.4c0,1.7-0.5,3.2-1.6,4.4c-1.1,1.2-2.4,1.8-3.9,1.8h-10
			C358.3,343.8,357,343.2,356,342z"/>
	</g>
</g>
<g class="st3">
	<path class="st5" d="M427.9,342c-1.1-1.2-1.6-2.7-1.6-4.4v-11.4c0-1.7,0.5-3.2,1.6-4.4c1.1-1.2,2.4-1.8,3.9-1.8h10
		c1.5,0,2.8-0.6,3.9-1.8c1.1-1.2,1.6-2.7,1.6-4.4v-11.4c0-1.7-0.5-3.2-1.6-4.4c-1.1-1.2-2.4-1.8-3.9-1.8h-10c-1.5,0-2.8-0.6-3.9-1.8
		c-1.1-1.2-1.6-2.7-1.6-4.4v-11.4c0-1.7,0.5-3.2,1.6-4.4c1.1-1.2,2.4-1.8,3.9-1.8h30.9c1.5,0,2.8,0.6,3.9,1.8
		c1.1,1.2,1.6,2.7,1.6,4.4v35.3c0,1.7-0.5,3.2-1.6,4.4c-1.1,1.2-2.4,1.8-3.9,1.8h-10c-1.4,0-2.6,0.6-3.8,1.8
		c-1.1,1.2-1.7,2.7-1.7,4.4v11.4c0,1.7-0.5,3.2-1.6,4.4c-1.1,1.2-2.4,1.8-3.9,1.8h-10C430.3,343.8,429,343.2,427.9,342z
		 M448.9,222.3c-1.1-1.3-1.7-2.7-1.7-4.3v-11.6c0-1.6,0.6-3,1.7-4.2c1.1-1.2,2.4-1.8,3.8-1.8h10c1.5,0,2.8,0.6,3.9,1.8
		c1.1,1.2,1.6,2.6,1.6,4.2V218c0,1.6-0.5,3-1.6,4.3c-1.1,1.3-2.4,1.9-3.9,1.9h-10C451.3,224.2,450.1,223.6,448.9,222.3z"/>
</g>
<g class="st3">
	<g class="st2">
		<g>
			<g>
				<path class="st6" d="M324,212.2l-22.8,6.3c-2.8,0.8-5.6-1.3-6.2-4.5l-3.3-19.2c-0.5-2.8,1-5.4,3.5-6l19.5-4.8
					c2.4-0.6,4.8,0.9,5.8,3.4l6.6,17.8C328.3,208.2,326.8,211.5,324,212.2z"/>
				<circle class="st6" cx="330.7" cy="289.1" r="86.3"/>
			</g>
		</g>
		<g>
			<g>
				<path class="st6" d="M363.4,219.2l-22.9-6c-2.8-0.7-4.2-4-3.1-7l6.7-18.3c1-2.6,3.6-4.1,6-3.5l19.3,5.5c2.3,0.7,3.8,3.2,3.3,5.9
					l-3.1,18.7C369,217.8,366.1,220,363.4,219.2z"/>
				<circle class="st6" cx="330.7" cy="289.1" r="86.3"/>
			</g>
		</g>
		<g>
			<g>
				<path class="st6" d="M393.9,244.9l-16.8-16.6c-2-2-1.7-5.6,0.8-7.6l15-12.4c2.2-1.8,5.2-1.8,6.9,0l13.9,14.4
					c1.7,1.8,1.7,4.6-0.1,6.7L401.5,244C399.5,246.6,396,247,393.9,244.9z"/>
				<circle class="st6" cx="330.7" cy="289.1" r="86.3"/>
			</g>
		</g>
		<g>
			<g>
				<path class="st6" d="M407.5,282.5l-6.3-22.8c-0.8-2.8,1.3-5.6,4.5-6.2l19.2-3.3c2.8-0.5,5.4,1,6,3.5l4.8,19.5
					c0.6,2.4-0.9,4.8-3.4,5.8l-17.8,6.6C411.6,286.7,408.3,285.3,407.5,282.5z"/>
				<circle class="st6" cx="330.7" cy="289.1" r="86.3"/>
			</g>
		</g>
		<g>
			<g>
				<path class="st6" d="M400.5,321.8l6-22.9c0.7-2.8,4-4.2,7-3.1l18.3,6.7c2.6,1,4.1,3.6,3.5,6l-5.5,19.3c-0.7,2.3-3.2,3.8-5.9,3.3
					l-18.7-3.1C401.9,327.5,399.8,324.6,400.5,321.8z"/>
				<circle class="st6" cx="330.7" cy="289.1" r="86.3"/>
			</g>
		</g>
		<g>
			<g>
				<path class="st6" d="M374.8,352.4l16.6-16.8c2-2,5.6-1.7,7.6,0.8l12.4,15c1.8,2.2,1.8,5.2,0,6.9L397,372.2
					c-1.8,1.7-4.6,1.7-6.7-0.1L375.7,360C373.2,358,372.8,354.4,374.8,352.4z"/>
				<circle class="st6" cx="330.7" cy="289.1" r="86.3"/>
			</g>
		</g>
		<g>
			<g>
				<path class="st6" d="M337.3,366l22.8-6.3c2.8-0.8,5.6,1.3,6.2,4.5l3.3,19.2c0.5,2.8-1,5.4-3.5,6l-19.5,4.8
					c-2.4,0.6-4.8-0.9-5.8-3.4l-6.6-17.8C333.1,370.1,334.5,366.8,337.3,366z"/>
				<circle class="st6" cx="330.7" cy="289.1" r="86.3"/>
			</g>
		</g>
		<g>
			<g>
				<path class="st6" d="M297.9,359l22.9,6c2.8,0.7,4.2,4,3.1,7l-6.7,18.3c-1,2.6-3.6,4.1-6,3.5l-19.3-5.5c-2.3-0.7-3.8-3.2-3.3-5.9
					l3.1-18.7C292.3,360.4,295.2,358.3,297.9,359z"/>
				<circle class="st6" cx="330.7" cy="289.1" r="86.3"/>
			</g>
		</g>
		<g>
			<g>
				<path class="st6" d="M267.4,333.3l16.8,16.6c2,2,1.7,5.6-0.8,7.6l-15,12.4c-2.2,1.8-5.2,1.8-6.9,0l-13.9-14.4
					c-1.7-1.8-1.7-4.6,0.1-6.7l12.1-14.6C261.8,331.7,265.3,331.3,267.4,333.3z"/>
				<circle class="st6" cx="330.7" cy="289.1" r="86.3"/>
			</g>
		</g>
		<g>
			<g>
				<path class="st6" d="M253.8,295.7l6.3,22.8c0.8,2.8-1.3,5.6-4.5,6.2l-19.2,3.3c-2.8,0.5-5.4-1-6-3.5l-4.8-19.5
					c-0.6-2.4,0.9-4.8,3.4-5.8l17.8-6.6C249.7,291.5,253,293,253.8,295.7z"/>
				<circle class="st6" cx="330.7" cy="289.1" r="86.3"/>
			</g>
		</g>
		<g>
			<g>
				<path class="st6" d="M260.8,256.4l-6,22.9c-0.7,2.8-4,4.2-7,3.1l-18.3-6.7c-2.6-1-4.1-3.6-3.5-6l5.5-19.3
					c0.7-2.3,3.2-3.8,5.9-3.3l18.7,3.1C259.4,250.7,261.5,253.6,260.8,256.4z"/>
				<circle class="st6" cx="330.7" cy="289.1" r="86.3"/>
			</g>
		</g>
		<g>
			<g>
				<path class="st6" d="M286.5,225.9l-16.6,16.8c-2,2-5.6,1.7-7.6-0.8l-12.4-15c-1.8-2.2-1.8-5.2,0-6.9l14.4-13.9
					c1.8-1.7,4.6-1.7,6.7,0.1l14.6,12.1C288.1,220.2,288.5,223.8,286.5,225.9z"/>
				<circle class="st6" cx="330.7" cy="289.1" r="86.3"/>
			</g>
		</g>
		<g>
			<g>
				<path class="st6" d="M324,212.2l-22.8,6.3c-2.8,0.8-5.6-1.3-6.2-4.5l-3.3-19.2c-0.5-2.8,1-5.4,3.5-6l19.5-4.8
					c2.4-0.6,4.8,0.9,5.8,3.4l6.6,17.8C328.3,208.2,326.8,211.5,324,212.2z"/>
				<circle class="st6" cx="330.7" cy="289.1" r="86.3"/>
			</g>
		</g>
	</g>
	<circle class="st7" cx="330.7" cy="289.1" r="50"/>
	<circle class="st8" cx="330.7" cy="289.1" r="39.9"/>
</g>
<g class="st3">
	<g class="st2">
		<g>
			<path class="st4" d="M243.6,119.4l-10.8,6.1c-3.5,2-6.6-0.2-8.3-4.7c-1.3-3.2-2.3-6.2-3.9-11c-1.1-3.6-0.9-5.9,1.5-7.6l8.1-4.4
				c2.4-1.1,4.5-0.4,6.7,2.5c2.9,3.7,4.8,6.1,7.7,10C246.8,113.2,247.1,117.4,243.6,119.4z"/>
			<path class="st4" d="M255.5,106.6c-4.3-0.2-8.6,0.3-12.6,1.3c-7.3,1.9-13.9,5.6-19.2,10.6c-7.9,7.5-13.1,18-13.5,29.8
				c-1,24,17.7,44.3,41.8,45.3c24.1,1,44.3-17.7,45.3-41.8C298.2,127.9,279.5,107.6,255.5,106.6z M252.3,176.5
				c-14.5-0.6-25.8-12.8-25.2-27.4c0.6-14.6,12.8-25.8,27.4-25.2c14.5,0.6,25.8,12.8,25.2,27.4C279.1,165.9,266.8,177.1,252.3,176.5
				z"/>
		</g>
	</g>
	<g class="st2">
		<g>
			<path class="st4" d="M268.4,121.3l-11.9-3.3c-3.8-1.1-4.5-4.8-2.6-9.2c1.4-3.2,2.7-6,5-10.5c1.7-3.3,3.6-4.8,6.4-4.3l8.8,2.6
				c2.5,1,3.4,2.9,3,6.5c-0.6,4.6-0.9,7.8-1.7,12.5C274.9,119.1,272.2,122.4,268.4,121.3z"/>
			<path class="st4" d="M285.8,120.6c-2.9-3.2-6.3-5.9-9.8-8c-6.5-3.8-13.8-5.9-21.1-6.1c-10.9-0.3-22,3.5-30.7,11.5
				c-17.7,16.3-18.8,43.9-2.5,61.6s43.9,18.8,61.6,2.5C301,165.9,302.1,138.3,285.8,120.6z M234.1,167.8
				c-9.9-10.7-9.2-27.3,1.5-37.2s27.3-9.2,37.2,1.5c9.9,10.7,9.2,27.3-1.5,37.2S244,178.4,234.1,167.8z"/>
		</g>
	</g>
	<g class="st2">
		<g>
			<path class="st4" d="M284.5,140.1l-6.1-10.8c-2-3.5,0.2-6.6,4.7-8.3c3.2-1.3,6.2-2.3,11-3.9c3.6-1.1,5.9-0.9,7.6,1.5l4.4,8.1
				c1.1,2.4,0.4,4.5-2.5,6.7c-3.7,2.9-6.1,4.8-10,7.7C290.7,143.2,286.4,143.6,284.5,140.1z"/>
			<path class="st4" d="M297.3,151.9c0.2-4.3-0.3-8.6-1.3-12.6c-1.9-7.3-5.6-13.9-10.6-19.2c-7.5-7.9-18-13.1-29.8-13.5
				c-24-1-44.3,17.7-45.3,41.8s17.7,44.3,41.8,45.3C276,194.7,296.3,176,297.3,151.9z M227.4,148.7c0.6-14.5,12.8-25.8,27.4-25.2
				c14.5,0.6,25.8,12.8,25.2,27.4c-0.6,14.5-12.8,25.8-27.4,25.2C238.1,175.5,226.8,163.3,227.4,148.7z"/>
		</g>
	</g>
	<g class="st2">
		<g>
			<path class="st4" d="M282.6,164.8l3.3-11.9c1.1-3.8,4.8-4.5,9.2-2.6c3.2,1.4,6,2.7,10.5,5c3.3,1.7,4.8,3.6,4.3,6.4l-2.6,8.9
				c-1,2.5-2.9,3.4-6.5,3c-4.6-0.6-7.8-0.9-12.5-1.7C284.8,171.4,281.5,168.6,282.6,164.8z"/>
			<path class="st4" d="M283.3,182.2c3.2-2.9,5.9-6.3,8-9.8c3.8-6.5,5.9-13.8,6.1-21.1c0.3-10.9-3.5-22-11.5-30.7
				c-16.3-17.7-43.9-18.8-61.6-2.5s-18.8,43.9-2.5,61.6C238,197.4,265.6,198.5,283.3,182.2z M236.1,130.6
				c10.7-9.9,27.3-9.2,37.2,1.5c9.9,10.7,9.2,27.3-1.5,37.2s-27.3,9.2-37.2-1.5S225.4,140.4,236.1,130.6z"/>
		</g>
	</g>
	<g class="st2">
		<g>
			<path class="st4" d="M263.8,180.9l10.8-6.1c3.5-2,6.6,0.2,8.3,4.7c1.3,3.2,2.3,6.2,3.9,11c1.1,3.6,0.9,5.9-1.5,7.6l-8.1,4.4
				c-2.4,1.1-4.5,0.4-6.7-2.5c-2.9-3.7-4.8-6.1-7.7-10C260.7,187.1,260.3,182.9,263.8,180.9z"/>
			<path class="st4" d="M252,193.7c4.3,0.2,8.6-0.3,12.6-1.3c7.3-1.9,13.9-5.6,19.2-10.6c7.9-7.5,13.1-18,13.5-29.8
				c1-24-17.7-44.3-41.8-45.3c-24.1-1-44.3,17.7-45.3,41.8C209.2,172.4,227.9,192.7,252,193.7z M255.1,123.9
				c14.5,0.6,25.8,12.8,25.2,27.4c-0.6,14.6-12.8,25.8-27.4,25.2c-14.5-0.6-25.8-12.8-25.2-27.4
				C228.3,134.5,240.6,123.3,255.1,123.9z"/>
		</g>
	</g>
	<g class="st2">
		<g>
			<path class="st4" d="M239.1,179.1l11.9,3.3c3.8,1.1,4.5,4.8,2.6,9.2c-1.4,3.2-2.7,6-5,10.5c-1.7,3.3-3.6,4.8-6.4,4.3l-8.8-2.6
				c-2.5-1-3.4-2.9-3-6.5c0.6-4.6,0.9-7.8,1.7-12.5C232.5,181.2,235.3,178,239.1,179.1z"/>
			<path class="st4" d="M221.7,179.7c2.9,3.2,6.3,5.9,9.8,8c6.5,3.8,13.8,5.9,21.1,6.1c10.9,0.3,22-3.5,30.7-11.5
				c17.7-16.3,18.8-43.9,2.5-61.6s-43.9-18.8-61.6-2.5C206.5,134.4,205.4,162,221.7,179.7z M273.3,132.6c9.9,10.7,9.2,27.3-1.5,37.2
				s-27.3,9.2-37.2-1.5c-9.9-10.7-9.2-27.3,1.5-37.2S263.5,121.9,273.3,132.6z"/>
		</g>
	</g>
	<g class="st2">
		<g>
			<path class="st4" d="M223,160.2l6.1,10.8c2,3.5-0.2,6.6-4.7,8.3c-3.2,1.3-6.2,2.3-11,3.9c-3.6,1.1-5.9,0.9-7.6-1.5l-4.4-8.1
				c-1.1-2.4-0.4-4.5,2.5-6.7c3.7-2.9,6.1-4.8,10-7.7C216.8,157.1,221,156.8,223,160.2z"/>
			<path class="st4" d="M210.2,148.4c-0.2,4.3,0.3,8.6,1.3,12.6c1.9,7.3,5.6,13.9,10.6,19.2c7.5,7.9,18,13.1,29.8,13.5
				c24,1,44.3-17.7,45.3-41.8s-17.7-44.3-41.8-45.3C231.4,105.7,211.2,124.4,210.2,148.4z M280,151.6c-0.6,14.5-12.8,25.8-27.4,25.2
				c-14.5-0.6-25.8-12.8-25.2-27.4c0.6-14.5,12.8-25.8,27.4-25.2C269.3,124.8,280.6,137.1,280,151.6z"/>
		</g>
	</g>
	<g class="st2">
		<g>
			<path class="st4" d="M224.8,135.5l-3.3,11.9c-1.1,3.8-4.8,4.5-9.2,2.6c-3.2-1.4-6-2.7-10.5-5c-3.3-1.7-4.8-3.6-4.3-6.4l2.6-8.8
				c1-2.5,2.9-3.4,6.5-3c4.6,0.6,7.8,0.9,12.5,1.7C222.7,128.9,225.9,131.7,224.8,135.5z"/>
			<path class="st4" d="M224.2,118.1c-3.2,2.9-5.9,6.3-8,9.8c-3.8,6.5-5.9,13.8-6.1,21.1c-0.3,10.9,3.5,22,11.5,30.7
				c16.3,17.7,43.9,18.8,61.6,2.5s18.8-43.9,2.5-61.6C269.4,102.9,241.9,101.8,224.2,118.1z M271.3,169.8
				c-10.7,9.9-27.3,9.2-37.2-1.5c-9.9-10.7-9.2-27.3,1.5-37.2s27.3-9.2,37.2,1.5S282,159.9,271.3,169.8z"/>
		</g>
	</g>
	<g class="st2">
		<g>
			<path class="st4" d="M243.6,119.4l-10.8,6.1c-3.5,2-6.6-0.2-8.3-4.7c-1.3-3.2-2.3-6.2-3.9-11c-1.1-3.6-0.9-5.9,1.5-7.6l8.1-4.4
				c2.4-1.1,4.5-0.4,6.7,2.5c2.9,3.7,4.8,6.1,7.7,10C246.8,113.2,247.1,117.4,243.6,119.4z"/>
			<path class="st4" d="M255.5,106.6c-4.3-0.2-8.6,0.3-12.6,1.3c-7.3,1.9-13.9,5.6-19.2,10.6c-7.9,7.5-13.1,18-13.5,29.8
				c-1,24,17.7,44.3,41.8,45.3c24.1,1,44.3-17.7,45.3-41.8C298.2,127.9,279.5,107.6,255.5,106.6z M252.3,176.5
				c-14.5-0.6-25.8-12.8-25.2-27.4c0.6-14.6,12.8-25.8,27.4-25.2c14.5,0.6,25.8,12.8,25.2,27.4C279.1,165.9,266.8,177.1,252.3,176.5
				z"/>
		</g>
	</g>
</g>
<g>
	<path class="st4" d="M85.5,443.1c-2.2-2.4-3.3-5.3-3.3-8.7V412c0-3.4-1.1-6.3-3.1-8.7c-2.1-2.4-4.6-3.6-7.6-3.6H51.8
		c-2.7,0-5.2-1.2-7.4-3.6c-2.2-2.4-3.3-5.3-3.3-8.7V271c0-3.4-1.1-6.3-3.1-8.7c-2.1-2.4-4.6-3.6-7.6-3.6H10.7c-3,0-5.5-1.3-7.6-3.8
		C1,252.4,0,249.5,0,246.4V224c0-3.4,1-6.3,3.1-8.7c2.1-2.4,4.6-3.6,7.6-3.6h19.6c3,0,5.5-1.3,7.6-3.8c2.1-2.5,3.1-5.4,3.1-8.5V82.6
		c0-3.1,1.1-5.9,3.3-8.5c2.2-2.5,4.7-3.8,7.4-3.8h19.6c3,0,5.5-1.2,7.6-3.6c2.1-2.4,3.1-5.3,3.1-8.7V35.6c0-3.1,1.1-5.9,3.3-8.5
		c2.2-2.5,4.7-3.8,7.4-3.8h20c2.7,0,5.1,1.3,7.2,3.8c2.1,2.5,3.1,5.4,3.1,8.5V58c0,3.4-1.1,6.3-3.1,8.7c-2.1,2.4-4.5,3.6-7.2,3.6
		h-20c-2.7,0-5.2,1.3-7.4,3.8c-2.2,2.5-3.3,5.4-3.3,8.5v116.8c0,3.1-1.1,5.9-3.1,8.5c-2.1,2.5-4.6,3.8-7.6,3.8H51.8
		c-2.7,0-5.2,1.2-7.4,3.6c-2.2,2.4-3.3,5.3-3.3,8.7v22.4c0,3.1,1.1,5.9,3.3,8.5c2.2,2.5,4.7,3.8,7.4,3.8h19.6c3,0,5.5,1.2,7.6,3.6
		c2.1,2.4,3.1,5.3,3.1,8.7v116.4c0,3.4,1.1,6.3,3.3,8.7c2.2,2.4,4.7,3.6,7.4,3.6h20c2.7,0,5.1,1.2,7.2,3.6c2.1,2.4,3.1,5.3,3.1,8.7
		v22.4c0,3.4-1.1,6.3-3.1,8.7c-2.1,2.4-4.5,3.6-7.2,3.6h-20C90.2,446.7,87.7,445.5,85.5,443.1z"/>
</g>
<g>
	<path class="st4" d="M220.6,443.1c-2.1-2.4-3.1-5.3-3.1-8.7V412c0-3.4,1-6.3,3.1-8.7c2.1-2.4,4.6-3.6,7.6-3.6h19.6
		c3,0,5.5-1.2,7.6-3.6c2.1-2.4,3.1-5.3,3.1-8.7V271c0-3.4,1.1-6.3,3.3-8.7c2.2-2.4,4.7-3.6,7.4-3.6h19.6c3,0,5.5-1.3,7.6-3.8
		c2.1-2.5,3.1-5.4,3.1-8.5V224c0-3.4-1.1-6.3-3.1-8.7c-2.1-2.4-4.6-3.6-7.6-3.6h-19.6c-2.7,0-5.2-1.3-7.4-3.8
		c-2.2-2.5-3.3-5.4-3.3-8.5V82.6c0-3.1-1.1-5.9-3.1-8.5c-2.1-2.5-4.6-3.8-7.6-3.8h-19.6c-3,0-5.5-1.2-7.6-3.6
		c-2.1-2.4-3.1-5.3-3.1-8.7V35.6c0-3.1,1-5.9,3.1-8.5c2.1-2.5,4.6-3.8,7.6-3.8h19.6c3,0,5.5,1.3,7.6,3.8c2.1,2.5,3.1,5.4,3.1,8.5V58
		c0,3.4,1.1,6.3,3.3,8.7c2.2,2.4,4.7,3.6,7.4,3.6h19.6c3,0,5.5,1.3,7.6,3.8c2.1,2.5,3.1,5.4,3.1,8.5v116.8c0,3.1,1.1,5.9,3.3,8.5
		c2.2,2.5,4.7,3.8,7.4,3.8h20c2.7,0,5.1,1.2,7.2,3.6c2.1,2.4,3.1,5.3,3.1,8.7v22.4c0,3.1-1.1,5.9-3.1,8.5c-2.1,2.5-4.5,3.8-7.2,3.8
		h-20c-2.7,0-5.2,1.2-7.4,3.6c-2.2,2.4-3.3,5.3-3.3,8.7v116.4c0,3.4-1.1,6.3-3.1,8.7c-2.1,2.4-4.6,3.6-7.6,3.6h-19.6
		c-2.7,0-5.2,1.2-7.4,3.6c-2.2,2.4-3.3,5.3-3.3,8.7v22.4c0,3.4-1.1,6.3-3.1,8.7c-2.1,2.4-4.6,3.6-7.6,3.6h-19.6
		C225.2,446.7,222.7,445.5,220.6,443.1z"/>
</g>
<path class="st4" d="M391,443.1c-2.1-2.4-3.1-5.3-3.1-8.7V412c0-3.4,1-6.3,3.1-8.7c2.1-2.4,4.6-3.6,7.6-3.6h19.6
	c3,0,5.5-1.2,7.6-3.6c2.1-2.4,3.1-5.3,3.1-8.7V365c0-3.4-1.1-6.3-3.1-8.7c-2.1-2.4-4.6-3.6-7.6-3.6h-19.6c-3,0-5.5-1.2-7.6-3.6
	c-2.1-2.4-3.1-5.3-3.1-8.7V318c0-3.4,1-6.3,3.1-8.7c2.1-2.4,4.6-3.6,7.6-3.6h60.7c3,0,5.5,1.2,7.6,3.6c2.1,2.4,3.1,5.3,3.1,8.7v69.4
	c0,3.4-1.1,6.3-3.1,8.7c-2.1,2.4-4.6,3.6-7.6,3.6h-19.6c-2.7,0-5.2,1.2-7.4,3.6c-2.2,2.4-3.3,5.3-3.3,8.7v22.4
	c0,3.4-1.1,6.3-3.1,8.7c-2.1,2.4-4.6,3.6-7.6,3.6h-19.6C395.6,446.7,393.1,445.5,391,443.1z M432.3,207.9c-2.2-2.5-3.3-5.4-3.3-8.5
	v-22.9c0-3.1,1.1-5.9,3.3-8.3c2.2-2.4,4.7-3.6,7.4-3.6h19.6c3,0,5.5,1.2,7.6,3.6c2.1,2.4,3.1,5.2,3.1,8.3v22.9
	c0,3.1-1.1,5.9-3.1,8.5c-2.1,2.5-4.6,3.8-7.6,3.8h-19.6C436.9,211.7,434.5,210.4,432.3,207.9z"/>
</svg>
